M48
;DRILL file {KiCad (2016-08-20 BZR 7083)-product} date Tue Jan 31 21:42:45 2017
;FORMAT={3:3/ absolute / metric / suppress leading zeros}
FMAT,2
METRIC,TZ
T1C0.500
T2C0.700
T3C0.800
T4C0.900
T5C1.000
T6C1.100
T7C1.400
%
G90
G05
M71
T1
X1100Y45900
X1100Y41500
X1300Y84700
X1300Y79400
X1500Y65300
X3100Y27000
X3700Y86900
X3700Y34900
X3900Y98900
X4300Y20100
X4300Y10400
X4300Y7400
X4500Y79300
X4600Y39800
X4700Y13600
X4800Y46100
X4800Y41300
X4900Y30600
X5600Y61600
X5700Y42200
X6000Y45900
X6500Y17800
X6900Y80300
X6900Y39100
X7100Y27400
X7500Y64800
X7500Y61900
X7800Y79200
X7800Y11200
X8000Y51400
X9000Y23200
X9400Y42700
X9500Y29000
X9800Y27400
X9900Y61900
X11400Y13400
X12600Y30900
X12800Y11200
X12900Y45400
X12900Y35100
X13700Y84200
X14500Y46900
X14500Y4400
X15300Y96700
X15300Y30900
X16000Y90100
X16400Y41100
X16500Y58300
X16600Y80900
X16700Y100700
X16800Y14100
X17100Y28000
X17800Y81200
X17800Y69700
X17800Y44900
X18100Y89100
X18600Y61800
X18700Y53900
X19000Y84800
X19200Y93000
X19200Y90300
X19200Y66900
X20400Y93000
X20400Y91200
X20400Y58200
X21700Y81500
X22100Y93000
X22100Y48700
X22100Y44500
X22350Y57800
X22500Y87200
X22600Y90700
X23000Y50000
X23800Y55900
X23800Y34800
X23800Y26800
X24100Y14400
X24100Y8100
X24500Y48500
X24800Y99800
X25200Y78700
X25200Y30400
X25600Y52500
X25600Y2700
X26200Y102200
X26200Y99700
X26300Y104600
X26300Y60300
X26300Y44500
X26400Y34800
X26600Y47700
X26600Y18200
X27700Y99800
X27800Y75800
X27800Y69800
X27900Y19600
X28200Y52100
X28600Y59900
X28900Y15500
X28900Y13900
X29200Y82900
X29400Y64550
X29600Y48900
X29900Y42500
X30200Y9200
X31100Y25400
X31550Y69550
X32000Y81600
X32300Y88800
X33000Y50500
X33100Y14300
X33900Y60000
X34600Y103300
X34900Y80600
X34900Y71300
X35200Y18300
X35800Y8700
X36300Y12500
X36500Y28500
X36800Y95800
X36800Y89300
X36800Y77500
X36800Y69900
X36800Y58500
X37600Y65000
X37600Y45200
X38100Y1700
X38300Y100000
X38900Y24200
T2
X7500Y104440
X7500Y99360
X7765Y94170
X7765Y91630
X9035Y92900
X11030Y67035
X11765Y50800
X11860Y36200
X11930Y60835
X12160Y97600
X12300Y65765
X12560Y22400
X12965Y70900
X13035Y52070
X13035Y49530
X13200Y59565
X13570Y67035
X14235Y72170
X14235Y69630
X14470Y60835
X16330Y64965
X16940Y36200
X17240Y97600
X17600Y66235
X17640Y22400
X18870Y64965
X29665Y87070
X29665Y84530
X30935Y85800
X32365Y66200
X33635Y67470
X33635Y64930
X33965Y28870
X33965Y26330
X35235Y27600
T3
X1950Y88150
X2000Y19200
X2000Y17100
X2850Y83050
X3000Y46300
X3000Y38700
X7730Y97000
X7730Y53000
X9600Y19200
X9600Y17100
X10270Y97000
X10270Y53000
X15050Y81550
X16900Y75600
X16900Y68000
X17400Y59800
X17400Y52200
X19500Y59800
X19500Y52200
X20150Y82450
X23200Y59800
X24200Y18800
X24200Y16700
X26300Y82000
X30800Y59800
X31800Y18800
X31800Y16700
X33900Y82000
X34800Y24200
X34800Y16600
X36900Y24200
X36900Y16600
T4
X1880Y32710
X1880Y25090
X4420Y32710
X4420Y25090
X5700Y52500
X6960Y32710
X6960Y25090
X9500Y32710
X9500Y25090
X12040Y32710
X12040Y25090
X12100Y103450
X12100Y100950
X13400Y75800
X14580Y32710
X14580Y25090
X14900Y41750
X14900Y39250
X17120Y32710
X17120Y25090
X18700Y103450
X18700Y100950
X19200Y73500
X20300Y63200
X27300Y65700
X31100Y21500
X32000Y45100
X33100Y57400
X33700Y69800
X33900Y84400
T5
X1800Y91600
X1800Y22000
X1900Y104380
X1900Y94220
X2100Y35900
X2400Y14700
X2400Y11700
X2400Y9000
X2400Y6000
X2900Y58100
X2900Y55100
X2900Y52300
X2900Y49300
X2900Y2600
X3630Y76380
X3630Y73840
X3630Y71300
X3630Y68760
X3630Y66220
X4800Y91600
X4800Y22000
X4900Y104380
X4900Y94220
X5100Y35900
X5900Y58200
X5900Y55200
X5900Y2600
X6170Y76380
X6170Y73840
X6170Y71300
X6170Y68760
X6170Y66220
X6500Y49900
X7500Y22000
X8500Y59300
X8500Y56300
X9500Y49900
X10500Y22000
X11000Y94800
X11000Y57300
X11100Y73600
X11100Y70600
X11100Y63500
X11200Y92100
X11200Y79800
X11200Y76800
X12100Y54700
X12200Y19700
X12200Y16700
X13300Y78100
X14000Y94800
X14000Y57300
X14100Y63500
X14200Y92100
X15100Y54700
X15200Y19700
X15200Y16900
X16300Y78100
X16400Y49500
X16400Y46600
X16700Y95180
X16700Y85020
X18200Y19700
X18200Y16900
X19200Y78700
X19200Y75700
X19400Y49500
X19400Y46600
X19400Y43900
X19400Y40900
X19600Y97480
X19600Y87320
X20000Y22200
X20200Y37100
X20200Y34100
X20300Y28200
X20300Y25200
X20400Y71500
X20400Y68500
X21500Y65700
X21500Y19900
X21500Y16900
X22000Y42400
X22000Y39400
X23000Y22200
X23200Y62400
X23700Y85000
X23700Y82000
X24500Y90000
X24500Y68000
X24500Y65700
X24500Y46000
X24500Y24000
X24600Y40700
X24600Y37700
X24900Y43400
X25600Y21500
X26200Y62400
X26300Y87200
X26300Y84200
X27000Y90000
X27000Y68000
X27000Y46000
X27000Y24000
X27600Y40700
X27600Y37700
X27900Y43400
X28600Y21500
X29500Y90000
X29500Y68000
X29500Y46000
X29500Y24000
X29600Y62400
X30300Y40800
X30300Y37800
X32600Y62400
X33000Y42200
X33000Y39400
X33600Y36400
X33600Y33400
X33900Y90000
X33900Y87000
X34900Y54000
X34900Y51000
X34900Y48200
X34900Y45200
X36000Y42200
X36000Y39400
X36000Y34200
X36000Y31200
X37800Y13800
X37800Y10800
T6
X9000Y46826
X9000Y38698
X9000Y35650
X9000Y13826
X9000Y5698
X9000Y2650
X20000Y13826
X20000Y5698
X20000Y2650
X31000Y13826
X31000Y5698
X31000Y2650
T7
X22000Y97000
X22000Y75000
X22000Y53000
X22000Y31000
X32000Y97000
X32000Y75000
X32000Y53000
X32000Y31000
T4
X6568Y88540G85X7368Y88540
G05
X6568Y86000G85X7368Y86000
G05
X6568Y83460G85X7368Y83460
G05
X10632Y88540G85X11432Y88540
G05
X10632Y86000G85X11432Y86000
G05
X10632Y83460G85X11432Y83460
G05
T0
M30
