G04 #@! TF.FileFunction,Legend,Top*
%FSLAX46Y46*%
G04 Gerber Fmt 4.6, Leading zero omitted, Abs format (unit mm)*
G04 Created by KiCad (PCBNEW (2016-08-20 BZR 7083)-product) date Tue Jan 31 21:42:43 2017*
%MOMM*%
%LPD*%
G01*
G04 APERTURE LIST*
%ADD10C,0.100000*%
%ADD11C,0.200000*%
%ADD12C,0.150000*%
G04 APERTURE END LIST*
D10*
D11*
X1500000Y45000000D02*
X1423809Y45057143D01*
X1309523Y45057143D01*
X1195238Y45000000D01*
X1119047Y44885715D01*
X1080952Y44771429D01*
X1042857Y44542858D01*
X1042857Y44371429D01*
X1080952Y44142858D01*
X1119047Y44028572D01*
X1195238Y43914286D01*
X1309523Y43857143D01*
X1385714Y43857143D01*
X1500000Y43914286D01*
X1538095Y43971429D01*
X1538095Y44371429D01*
X1385714Y44371429D01*
X1842857Y44200000D02*
X2223809Y44200000D01*
X1766666Y43857143D02*
X2033333Y45057143D01*
X2300000Y43857143D01*
X2452380Y45057143D02*
X2909523Y45057143D01*
X2680952Y43857143D02*
X2680952Y45057143D01*
X3176190Y44485715D02*
X3442857Y44485715D01*
X3557142Y43857143D02*
X3176190Y43857143D01*
X3176190Y45057143D01*
X3557142Y45057143D01*
X719047Y41857143D02*
X719047Y43057143D01*
X909523Y43057143D01*
X1023809Y43000000D01*
X1100000Y42885715D01*
X1138095Y42771429D01*
X1176190Y42542858D01*
X1176190Y42371429D01*
X1138095Y42142858D01*
X1100000Y42028572D01*
X1023809Y41914286D01*
X909523Y41857143D01*
X719047Y41857143D01*
X1519047Y42485715D02*
X1785714Y42485715D01*
X1900000Y41857143D02*
X1519047Y41857143D01*
X1519047Y43057143D01*
X1900000Y43057143D01*
X2623809Y41857143D02*
X2242857Y41857143D01*
X2242857Y43057143D01*
X2852380Y42200000D02*
X3233333Y42200000D01*
X2776190Y41857143D02*
X3042857Y43057143D01*
X3309523Y41857143D01*
X3728571Y42428572D02*
X3728571Y41857143D01*
X3461904Y43057143D02*
X3728571Y42428572D01*
X3995238Y43057143D01*
X1500000Y41057143D02*
X1652380Y41057143D01*
X1728571Y41000000D01*
X1804761Y40885715D01*
X1842857Y40657143D01*
X1842857Y40257143D01*
X1804761Y40028572D01*
X1728571Y39914286D01*
X1652380Y39857143D01*
X1500000Y39857143D01*
X1423809Y39914286D01*
X1347619Y40028572D01*
X1309523Y40257143D01*
X1309523Y40657143D01*
X1347619Y40885715D01*
X1423809Y41000000D01*
X1500000Y41057143D01*
X2185714Y41057143D02*
X2185714Y40085715D01*
X2223809Y39971429D01*
X2261904Y39914286D01*
X2338095Y39857143D01*
X2490476Y39857143D01*
X2566666Y39914286D01*
X2604761Y39971429D01*
X2642857Y40085715D01*
X2642857Y41057143D01*
X2909523Y41057143D02*
X3366666Y41057143D01*
X3138095Y39857143D02*
X3138095Y41057143D01*
D10*
X38028571Y80371429D02*
X38561904Y80523810D01*
X38180952Y80676191D01*
X38561904Y80828572D01*
X38028571Y80980953D01*
X38028571Y81209524D02*
X38561904Y81361905D01*
X38180952Y81514286D01*
X38561904Y81666667D01*
X38028571Y81819048D01*
X38028571Y82047620D02*
X38561904Y82200000D01*
X38180952Y82352381D01*
X38561904Y82504762D01*
X38028571Y82657143D01*
X38485714Y82961905D02*
X38523809Y83000000D01*
X38561904Y82961905D01*
X38523809Y82923810D01*
X38485714Y82961905D01*
X38561904Y82961905D01*
X38523809Y83647620D02*
X38561904Y83571429D01*
X38561904Y83419048D01*
X38523809Y83342858D01*
X38447619Y83304762D01*
X38142857Y83304762D01*
X38066666Y83342858D01*
X38028571Y83419048D01*
X38028571Y83571429D01*
X38066666Y83647620D01*
X38142857Y83685715D01*
X38219047Y83685715D01*
X38295238Y83304762D01*
X38561904Y84028572D02*
X38028571Y84028572D01*
X38180952Y84028572D02*
X38104761Y84066667D01*
X38066666Y84104762D01*
X38028571Y84180953D01*
X38028571Y84257143D01*
X38561904Y84523810D02*
X38028571Y84523810D01*
X37761904Y84523810D02*
X37800000Y84485715D01*
X37838095Y84523810D01*
X37800000Y84561905D01*
X37761904Y84523810D01*
X37838095Y84523810D01*
X38523809Y85247620D02*
X38561904Y85171429D01*
X38561904Y85019048D01*
X38523809Y84942858D01*
X38485714Y84904762D01*
X38409523Y84866667D01*
X38180952Y84866667D01*
X38104761Y84904762D01*
X38066666Y84942858D01*
X38028571Y85019048D01*
X38028571Y85171429D01*
X38066666Y85247620D01*
X38561904Y85933334D02*
X38142857Y85933334D01*
X38066666Y85895239D01*
X38028571Y85819048D01*
X38028571Y85666667D01*
X38066666Y85590477D01*
X38523809Y85933334D02*
X38561904Y85857143D01*
X38561904Y85666667D01*
X38523809Y85590477D01*
X38447619Y85552381D01*
X38371428Y85552381D01*
X38295238Y85590477D01*
X38257142Y85666667D01*
X38257142Y85857143D01*
X38219047Y85933334D01*
X38523809Y86276191D02*
X38561904Y86352381D01*
X38561904Y86504762D01*
X38523809Y86580953D01*
X38447619Y86619048D01*
X38409523Y86619048D01*
X38333333Y86580953D01*
X38295238Y86504762D01*
X38295238Y86390477D01*
X38257142Y86314286D01*
X38180952Y86276191D01*
X38142857Y86276191D01*
X38066666Y86314286D01*
X38028571Y86390477D01*
X38028571Y86504762D01*
X38066666Y86580953D01*
X38028571Y86885715D02*
X38561904Y87076191D01*
X38028571Y87266667D02*
X38561904Y87076191D01*
X38752380Y87000000D01*
X38790476Y86961905D01*
X38828571Y86885715D01*
X38028571Y87571429D02*
X38561904Y87571429D01*
X38104761Y87571429D02*
X38066666Y87609524D01*
X38028571Y87685715D01*
X38028571Y87800000D01*
X38066666Y87876191D01*
X38142857Y87914286D01*
X38561904Y87914286D01*
X38028571Y88180953D02*
X38028571Y88485715D01*
X37761904Y88295239D02*
X38447619Y88295239D01*
X38523809Y88333334D01*
X38561904Y88409524D01*
X38561904Y88485715D01*
X38561904Y88752381D02*
X37761904Y88752381D01*
X38561904Y89095239D02*
X38142857Y89095239D01*
X38066666Y89057143D01*
X38028571Y88980953D01*
X38028571Y88866667D01*
X38066666Y88790477D01*
X38104761Y88752381D01*
X38523809Y89438096D02*
X38561904Y89514286D01*
X38561904Y89666667D01*
X38523809Y89742858D01*
X38447619Y89780953D01*
X38409523Y89780953D01*
X38333333Y89742858D01*
X38295238Y89666667D01*
X38295238Y89552381D01*
X38257142Y89476191D01*
X38180952Y89438096D01*
X38142857Y89438096D01*
X38066666Y89476191D01*
X38028571Y89552381D01*
X38028571Y89666667D01*
X38066666Y89742858D01*
X38485714Y90123810D02*
X38523809Y90161905D01*
X38561904Y90123810D01*
X38523809Y90085715D01*
X38485714Y90123810D01*
X38561904Y90123810D01*
X38561904Y90619048D02*
X38523809Y90542858D01*
X38447619Y90504762D01*
X37761904Y90504762D01*
X38028571Y90847620D02*
X38561904Y91038096D01*
X38028571Y91228572D01*
D11*
X35167857Y55423810D02*
X35167857Y55757143D01*
X35953571Y55900000D02*
X35953571Y55423810D01*
X34453571Y55423810D01*
X34453571Y55900000D01*
X35953571Y56328572D02*
X34953571Y56328572D01*
X35239285Y56328572D02*
X35096428Y56376191D01*
X35025000Y56423810D01*
X34953571Y56519048D01*
X34953571Y56614286D01*
X35953571Y56947620D02*
X34953571Y56947620D01*
X34453571Y56947620D02*
X34525000Y56900000D01*
X34596428Y56947620D01*
X34525000Y56995239D01*
X34453571Y56947620D01*
X34596428Y56947620D01*
X35882142Y57852381D02*
X35953571Y57757143D01*
X35953571Y57566667D01*
X35882142Y57471429D01*
X35810714Y57423810D01*
X35667857Y57376191D01*
X35239285Y57376191D01*
X35096428Y57423810D01*
X35025000Y57471429D01*
X34953571Y57566667D01*
X34953571Y57757143D01*
X35025000Y57852381D01*
X35953571Y58709524D02*
X35167857Y58709524D01*
X35025000Y58661905D01*
X34953571Y58566667D01*
X34953571Y58376191D01*
X35025000Y58280953D01*
X35882142Y58709524D02*
X35953571Y58614286D01*
X35953571Y58376191D01*
X35882142Y58280953D01*
X35739285Y58233334D01*
X35596428Y58233334D01*
X35453571Y58280953D01*
X35382142Y58376191D01*
X35382142Y58614286D01*
X35310714Y58709524D01*
X35882142Y59900000D02*
X35953571Y60042858D01*
X35953571Y60280953D01*
X35882142Y60376191D01*
X35810714Y60423810D01*
X35667857Y60471429D01*
X35525000Y60471429D01*
X35382142Y60423810D01*
X35310714Y60376191D01*
X35239285Y60280953D01*
X35167857Y60090477D01*
X35096428Y59995239D01*
X35025000Y59947620D01*
X34882142Y59900000D01*
X34739285Y59900000D01*
X34596428Y59947620D01*
X34525000Y59995239D01*
X34453571Y60090477D01*
X34453571Y60328572D01*
X34525000Y60471429D01*
X34953571Y60804762D02*
X35953571Y61042858D01*
X34953571Y61280953D02*
X35953571Y61042858D01*
X36310714Y60947620D01*
X36382142Y60900000D01*
X36453571Y60804762D01*
X34953571Y61661905D02*
X35953571Y61661905D01*
X35096428Y61661905D02*
X35025000Y61709524D01*
X34953571Y61804762D01*
X34953571Y61947620D01*
X35025000Y62042858D01*
X35167857Y62090477D01*
X35953571Y62090477D01*
X34953571Y62423810D02*
X34953571Y62804762D01*
X34453571Y62566667D02*
X35739285Y62566667D01*
X35882142Y62614286D01*
X35953571Y62709524D01*
X35953571Y62804762D01*
X35953571Y63138096D02*
X34453571Y63138096D01*
X35953571Y63566667D02*
X35167857Y63566667D01*
X35025000Y63519048D01*
X34953571Y63423810D01*
X34953571Y63280953D01*
X35025000Y63185715D01*
X35096428Y63138096D01*
X35882142Y63995239D02*
X35953571Y64090477D01*
X35953571Y64280953D01*
X35882142Y64376191D01*
X35739285Y64423810D01*
X35667857Y64423810D01*
X35525000Y64376191D01*
X35453571Y64280953D01*
X35453571Y64138096D01*
X35382142Y64042858D01*
X35239285Y63995239D01*
X35167857Y63995239D01*
X35025000Y64042858D01*
X34953571Y64138096D01*
X34953571Y64280953D01*
X35025000Y64376191D01*
X38403571Y49566667D02*
X36903571Y49566667D01*
X36903571Y49947620D01*
X36975000Y50042858D01*
X37046428Y50090477D01*
X37189285Y50138096D01*
X37403571Y50138096D01*
X37546428Y50090477D01*
X37617857Y50042858D01*
X37689285Y49947620D01*
X37689285Y49566667D01*
X38403571Y50709524D02*
X38332142Y50614286D01*
X38260714Y50566667D01*
X38117857Y50519048D01*
X37689285Y50519048D01*
X37546428Y50566667D01*
X37475000Y50614286D01*
X37403571Y50709524D01*
X37403571Y50852381D01*
X37475000Y50947620D01*
X37546428Y50995239D01*
X37689285Y51042858D01*
X38117857Y51042858D01*
X38260714Y50995239D01*
X38332142Y50947620D01*
X38403571Y50852381D01*
X38403571Y50709524D01*
X38403571Y51614286D02*
X38332142Y51519048D01*
X38189285Y51471429D01*
X36903571Y51471429D01*
X38403571Y51995239D02*
X37403571Y51995239D01*
X36903571Y51995239D02*
X36975000Y51947620D01*
X37046428Y51995239D01*
X36975000Y52042858D01*
X36903571Y51995239D01*
X37046428Y51995239D01*
X37403571Y52376191D02*
X38403571Y52614286D01*
X37403571Y52852381D01*
X38403571Y53376191D02*
X38332142Y53280953D01*
X38260714Y53233334D01*
X38117857Y53185715D01*
X37689285Y53185715D01*
X37546428Y53233334D01*
X37475000Y53280953D01*
X37403571Y53376191D01*
X37403571Y53519048D01*
X37475000Y53614286D01*
X37546428Y53661905D01*
X37689285Y53709524D01*
X38117857Y53709524D01*
X38260714Y53661905D01*
X38332142Y53614286D01*
X38403571Y53519048D01*
X38403571Y53376191D01*
X38403571Y54138096D02*
X36903571Y54138096D01*
X37832142Y54233334D02*
X38403571Y54519048D01*
X37403571Y54519048D02*
X37975000Y54138096D01*
X38332142Y54900000D02*
X38403571Y54995239D01*
X38403571Y55185715D01*
X38332142Y55280953D01*
X38189285Y55328572D01*
X38117857Y55328572D01*
X37975000Y55280953D01*
X37903571Y55185715D01*
X37903571Y55042858D01*
X37832142Y54947620D01*
X37689285Y54900000D01*
X37617857Y54900000D01*
X37475000Y54947620D01*
X37403571Y55042858D01*
X37403571Y55185715D01*
X37475000Y55280953D01*
X37617857Y56519048D02*
X37617857Y56852381D01*
X38403571Y56995239D02*
X38403571Y56519048D01*
X36903571Y56519048D01*
X36903571Y56995239D01*
X36975000Y57947620D02*
X36903571Y57852381D01*
X36903571Y57709524D01*
X36975000Y57566667D01*
X37117857Y57471429D01*
X37260714Y57423810D01*
X37546428Y57376191D01*
X37760714Y57376191D01*
X38046428Y57423810D01*
X38189285Y57471429D01*
X38332142Y57566667D01*
X38403571Y57709524D01*
X38403571Y57804762D01*
X38332142Y57947620D01*
X38260714Y57995239D01*
X37760714Y57995239D01*
X37760714Y57804762D01*
X37403571Y59090477D02*
X38403571Y59328572D01*
X37403571Y59566667D01*
X37046428Y59900000D02*
X36975000Y59947620D01*
X36903571Y60042858D01*
X36903571Y60280953D01*
X36975000Y60376191D01*
X37046428Y60423810D01*
X37189285Y60471429D01*
X37332142Y60471429D01*
X37546428Y60423810D01*
X38403571Y59852381D01*
X38403571Y60471429D01*
X38260714Y60900000D02*
X38332142Y60947620D01*
X38403571Y60900000D01*
X38332142Y60852381D01*
X38260714Y60900000D01*
X38403571Y60900000D01*
X37046428Y61328572D02*
X36975000Y61376191D01*
X36903571Y61471429D01*
X36903571Y61709524D01*
X36975000Y61804762D01*
X37046428Y61852381D01*
X37189285Y61900000D01*
X37332142Y61900000D01*
X37546428Y61852381D01*
X38403571Y61280953D01*
X38403571Y61900000D01*
X36903571Y63376191D02*
X37975000Y63376191D01*
X38189285Y63328572D01*
X38332142Y63233334D01*
X38403571Y63090477D01*
X38403571Y62995239D01*
X38403571Y64280953D02*
X37617857Y64280953D01*
X37475000Y64233334D01*
X37403571Y64138096D01*
X37403571Y63947620D01*
X37475000Y63852381D01*
X38332142Y64280953D02*
X38403571Y64185715D01*
X38403571Y63947620D01*
X38332142Y63852381D01*
X38189285Y63804762D01*
X38046428Y63804762D01*
X37903571Y63852381D01*
X37832142Y63947620D01*
X37832142Y64185715D01*
X37760714Y64280953D01*
X37403571Y64757143D02*
X38403571Y64757143D01*
X37546428Y64757143D02*
X37475000Y64804762D01*
X37403571Y64900000D01*
X37403571Y65042858D01*
X37475000Y65138096D01*
X37617857Y65185715D01*
X38403571Y65185715D01*
X38260714Y65661905D02*
X38332142Y65709524D01*
X38403571Y65661905D01*
X38332142Y65614286D01*
X38260714Y65661905D01*
X38403571Y65661905D01*
X37046428Y66852381D02*
X36975000Y66900000D01*
X36903571Y66995239D01*
X36903571Y67233334D01*
X36975000Y67328572D01*
X37046428Y67376191D01*
X37189285Y67423810D01*
X37332142Y67423810D01*
X37546428Y67376191D01*
X38403571Y66804762D01*
X38403571Y67423810D01*
X36903571Y68042858D02*
X36903571Y68138096D01*
X36975000Y68233334D01*
X37046428Y68280953D01*
X37189285Y68328572D01*
X37475000Y68376191D01*
X37832142Y68376191D01*
X38117857Y68328572D01*
X38260714Y68280953D01*
X38332142Y68233334D01*
X38403571Y68138096D01*
X38403571Y68042858D01*
X38332142Y67947620D01*
X38260714Y67900000D01*
X38117857Y67852381D01*
X37832142Y67804762D01*
X37475000Y67804762D01*
X37189285Y67852381D01*
X37046428Y67900000D01*
X36975000Y67947620D01*
X36903571Y68042858D01*
X38403571Y69328572D02*
X38403571Y68757143D01*
X38403571Y69042858D02*
X36903571Y69042858D01*
X37117857Y68947620D01*
X37260714Y68852381D01*
X37332142Y68757143D01*
X36903571Y69661905D02*
X36903571Y70328572D01*
X38403571Y69900000D01*
X22666666Y2757143D02*
X22666666Y3957143D01*
X23142857Y2757143D02*
X23142857Y3957143D01*
X23714285Y2757143D01*
X23714285Y3957143D01*
X24047619Y3957143D02*
X24380952Y2757143D01*
X24714285Y3957143D01*
X21476190Y1385715D02*
X21809523Y1385715D01*
X21952380Y757143D02*
X21476190Y757143D01*
X21476190Y1957143D01*
X21952380Y1957143D01*
X22904761Y1900000D02*
X22809523Y1957143D01*
X22666666Y1957143D01*
X22523809Y1900000D01*
X22428571Y1785715D01*
X22380952Y1671429D01*
X22333333Y1442858D01*
X22333333Y1271429D01*
X22380952Y1042858D01*
X22428571Y928572D01*
X22523809Y814286D01*
X22666666Y757143D01*
X22761904Y757143D01*
X22904761Y814286D01*
X22952380Y871429D01*
X22952380Y1271429D01*
X22761904Y1271429D01*
X24333333Y1957143D02*
X24523809Y1957143D01*
X24619047Y1900000D01*
X24714285Y1785715D01*
X24761904Y1557143D01*
X24761904Y1157143D01*
X24714285Y928572D01*
X24619047Y814286D01*
X24523809Y757143D01*
X24333333Y757143D01*
X24238095Y814286D01*
X24142857Y928572D01*
X24095238Y1157143D01*
X24095238Y1557143D01*
X24142857Y1785715D01*
X24238095Y1900000D01*
X24333333Y1957143D01*
X25190476Y1957143D02*
X25190476Y985715D01*
X25238095Y871429D01*
X25285714Y814286D01*
X25380952Y757143D01*
X25571428Y757143D01*
X25666666Y814286D01*
X25714285Y871429D01*
X25761904Y985715D01*
X25761904Y1957143D01*
X26095238Y1957143D02*
X26666666Y1957143D01*
X26380952Y757143D02*
X26380952Y1957143D01*
X2638095Y63914286D02*
X3400000Y63914286D01*
X4400000Y63457143D02*
X3828571Y63457143D01*
X4114285Y63457143D02*
X4114285Y64657143D01*
X4019047Y64485715D01*
X3923809Y64371429D01*
X3828571Y64314286D01*
X4780952Y64542858D02*
X4828571Y64600000D01*
X4923809Y64657143D01*
X5161904Y64657143D01*
X5257142Y64600000D01*
X5304761Y64542858D01*
X5352380Y64428572D01*
X5352380Y64314286D01*
X5304761Y64142858D01*
X4733333Y63457143D01*
X5352380Y63457143D01*
X5638095Y64657143D02*
X5971428Y63457143D01*
X6304761Y64657143D01*
X3138095Y78414286D02*
X3900000Y78414286D01*
X3519047Y77957143D02*
X3519047Y78871429D01*
X4900000Y77957143D02*
X4328571Y77957143D01*
X4614285Y77957143D02*
X4614285Y79157143D01*
X4519047Y78985715D01*
X4423809Y78871429D01*
X4328571Y78814286D01*
X5280952Y79042858D02*
X5328571Y79100000D01*
X5423809Y79157143D01*
X5661904Y79157143D01*
X5757142Y79100000D01*
X5804761Y79042858D01*
X5852380Y78928572D01*
X5852380Y78814286D01*
X5804761Y78642858D01*
X5233333Y77957143D01*
X5852380Y77957143D01*
X6138095Y79157143D02*
X6471428Y77957143D01*
X6804761Y79157143D01*
X1595238Y80357143D02*
X1595238Y81557143D01*
X1861904Y80700000D01*
X2128571Y81557143D01*
X2128571Y80357143D01*
X2661904Y81557143D02*
X2814285Y81557143D01*
X2890476Y81500000D01*
X2966666Y81385715D01*
X3004761Y81157143D01*
X3004761Y80757143D01*
X2966666Y80528572D01*
X2890476Y80414286D01*
X2814285Y80357143D01*
X2661904Y80357143D01*
X2585714Y80414286D01*
X2509523Y80528572D01*
X2471428Y80757143D01*
X2471428Y81157143D01*
X2509523Y81385715D01*
X2585714Y81500000D01*
X2661904Y81557143D01*
X3347619Y80357143D02*
X3347619Y81557143D01*
X3538095Y81557143D01*
X3652380Y81500000D01*
X3728571Y81385715D01*
X3766666Y81271429D01*
X3804761Y81042858D01*
X3804761Y80871429D01*
X3766666Y80642858D01*
X3728571Y80528572D01*
X3652380Y80414286D01*
X3538095Y80357143D01*
X3347619Y80357143D01*
X4147619Y80985715D02*
X4414285Y80985715D01*
X4528571Y80357143D02*
X4147619Y80357143D01*
X4147619Y81557143D01*
X4528571Y81557143D01*
X5442857Y80414286D02*
X5557142Y80357143D01*
X5747619Y80357143D01*
X5823809Y80414286D01*
X5861904Y80471429D01*
X5900000Y80585715D01*
X5900000Y80700000D01*
X5861904Y80814286D01*
X5823809Y80871429D01*
X5747619Y80928572D01*
X5595238Y80985715D01*
X5519047Y81042858D01*
X5480952Y81100000D01*
X5442857Y81214286D01*
X5442857Y81328572D01*
X5480952Y81442858D01*
X5519047Y81500000D01*
X5595238Y81557143D01*
X5785714Y81557143D01*
X5900000Y81500000D01*
X6166666Y81557143D02*
X6357142Y80357143D01*
X6509523Y81214286D01*
X6661904Y80357143D01*
X6852380Y81557143D01*
X7157142Y80357143D02*
X7157142Y81557143D01*
X7423809Y81557143D02*
X7880952Y81557143D01*
X7652380Y80357143D02*
X7652380Y81557143D01*
X8604761Y80471429D02*
X8566666Y80414286D01*
X8452380Y80357143D01*
X8376190Y80357143D01*
X8261904Y80414286D01*
X8185714Y80528572D01*
X8147619Y80642858D01*
X8109523Y80871429D01*
X8109523Y81042858D01*
X8147619Y81271429D01*
X8185714Y81385715D01*
X8261904Y81500000D01*
X8376190Y81557143D01*
X8452380Y81557143D01*
X8566666Y81500000D01*
X8604761Y81442858D01*
X8947619Y80357143D02*
X8947619Y81557143D01*
X8947619Y80985715D02*
X9404761Y80985715D01*
X9404761Y80357143D02*
X9404761Y81557143D01*
X24571428Y102900000D02*
X25047619Y102900000D01*
X24476190Y102557143D02*
X24809523Y103757143D01*
X25142857Y102557143D01*
X25333333Y103757143D02*
X25904761Y103757143D01*
X25619047Y102557143D02*
X25619047Y103757143D01*
X26095238Y103757143D02*
X26666666Y103757143D01*
X26380952Y102557143D02*
X26380952Y103757143D01*
X26952380Y102900000D02*
X27428571Y102900000D01*
X26857142Y102557143D02*
X27190476Y103757143D01*
X27523809Y102557143D01*
X28428571Y102671429D02*
X28380952Y102614286D01*
X28238095Y102557143D01*
X28142857Y102557143D01*
X28000000Y102614286D01*
X27904761Y102728572D01*
X27857142Y102842858D01*
X27809523Y103071429D01*
X27809523Y103242858D01*
X27857142Y103471429D01*
X27904761Y103585715D01*
X28000000Y103700000D01*
X28142857Y103757143D01*
X28238095Y103757143D01*
X28380952Y103700000D01*
X28428571Y103642858D01*
X28857142Y102557143D02*
X28857142Y103757143D01*
X29428571Y102557143D02*
X29000000Y103242858D01*
X29428571Y103757143D02*
X28857142Y103071429D01*
X27928571Y81257143D02*
X27928571Y82457143D01*
X28166666Y82457143D01*
X28309523Y82400000D01*
X28404761Y82285715D01*
X28452380Y82171429D01*
X28500000Y81942858D01*
X28500000Y81771429D01*
X28452380Y81542858D01*
X28404761Y81428572D01*
X28309523Y81314286D01*
X28166666Y81257143D01*
X27928571Y81257143D01*
X28928571Y81885715D02*
X29261904Y81885715D01*
X29404761Y81257143D02*
X28928571Y81257143D01*
X28928571Y82457143D01*
X29404761Y82457143D01*
X30404761Y81371429D02*
X30357142Y81314286D01*
X30214285Y81257143D01*
X30119047Y81257143D01*
X29976190Y81314286D01*
X29880952Y81428572D01*
X29833333Y81542858D01*
X29785714Y81771429D01*
X29785714Y81942858D01*
X29833333Y82171429D01*
X29880952Y82285715D01*
X29976190Y82400000D01*
X30119047Y82457143D01*
X30214285Y82457143D01*
X30357142Y82400000D01*
X30404761Y82342858D01*
X30785714Y81600000D02*
X31261904Y81600000D01*
X30690476Y81257143D02*
X31023809Y82457143D01*
X31357142Y81257143D01*
X31880952Y81828572D02*
X31880952Y81257143D01*
X31547619Y82457143D02*
X31880952Y81828572D01*
X32214285Y82457143D01*
X24428571Y58514286D02*
X24557142Y58457143D01*
X24771428Y58457143D01*
X24857142Y58514286D01*
X24900000Y58571429D01*
X24942857Y58685715D01*
X24942857Y58800000D01*
X24900000Y58914286D01*
X24857142Y58971429D01*
X24771428Y59028572D01*
X24600000Y59085715D01*
X24514285Y59142858D01*
X24471428Y59200000D01*
X24428571Y59314286D01*
X24428571Y59428572D01*
X24471428Y59542858D01*
X24514285Y59600000D01*
X24600000Y59657143D01*
X24814285Y59657143D01*
X24942857Y59600000D01*
X25328571Y59657143D02*
X25328571Y58685715D01*
X25371428Y58571429D01*
X25414285Y58514286D01*
X25500000Y58457143D01*
X25671428Y58457143D01*
X25757142Y58514286D01*
X25800000Y58571429D01*
X25842857Y58685715D01*
X25842857Y59657143D01*
X26228571Y58514286D02*
X26357142Y58457143D01*
X26571428Y58457143D01*
X26657142Y58514286D01*
X26700000Y58571429D01*
X26742857Y58685715D01*
X26742857Y58800000D01*
X26700000Y58914286D01*
X26657142Y58971429D01*
X26571428Y59028572D01*
X26400000Y59085715D01*
X26314285Y59142858D01*
X26271428Y59200000D01*
X26228571Y59314286D01*
X26228571Y59428572D01*
X26271428Y59542858D01*
X26314285Y59600000D01*
X26400000Y59657143D01*
X26614285Y59657143D01*
X26742857Y59600000D01*
X27000000Y59657143D02*
X27514285Y59657143D01*
X27257142Y58457143D02*
X27257142Y59657143D01*
X27771428Y58800000D02*
X28200000Y58800000D01*
X27685714Y58457143D02*
X27985714Y59657143D01*
X28285714Y58457143D01*
X28585714Y58457143D02*
X28585714Y59657143D01*
X29014285Y58457143D02*
X29014285Y59657143D01*
X29528571Y58457143D01*
X29528571Y59657143D01*
X14342857Y29657143D02*
X14009523Y30228572D01*
X13771428Y29657143D02*
X13771428Y30857143D01*
X14152380Y30857143D01*
X14247619Y30800000D01*
X14295238Y30742858D01*
X14342857Y30628572D01*
X14342857Y30457143D01*
X14295238Y30342858D01*
X14247619Y30285715D01*
X14152380Y30228572D01*
X13771428Y30228572D01*
X14771428Y30285715D02*
X15104761Y30285715D01*
X15247619Y29657143D02*
X14771428Y29657143D01*
X14771428Y30857143D01*
X15247619Y30857143D01*
X16152380Y29657143D02*
X15676190Y29657143D01*
X15676190Y30857143D01*
X16485714Y30285715D02*
X16819047Y30285715D01*
X16961904Y29657143D02*
X16485714Y29657143D01*
X16485714Y30857143D01*
X16961904Y30857143D01*
X17342857Y30000000D02*
X17819047Y30000000D01*
X17247619Y29657143D02*
X17580952Y30857143D01*
X17914285Y29657143D01*
X18200000Y29714286D02*
X18342857Y29657143D01*
X18580952Y29657143D01*
X18676190Y29714286D01*
X18723809Y29771429D01*
X18771428Y29885715D01*
X18771428Y30000000D01*
X18723809Y30114286D01*
X18676190Y30171429D01*
X18580952Y30228572D01*
X18390476Y30285715D01*
X18295238Y30342858D01*
X18247619Y30400000D01*
X18200000Y30514286D01*
X18200000Y30628572D01*
X18247619Y30742858D01*
X18295238Y30800000D01*
X18390476Y30857143D01*
X18628571Y30857143D01*
X18771428Y30800000D01*
X19200000Y30285715D02*
X19533333Y30285715D01*
X19676190Y29657143D02*
X19200000Y29657143D01*
X19200000Y30857143D01*
X19676190Y30857143D01*
X32876190Y3385715D02*
X33209523Y3385715D01*
X33352380Y2757143D02*
X32876190Y2757143D01*
X32876190Y3957143D01*
X33352380Y3957143D01*
X34304761Y3900000D02*
X34209523Y3957143D01*
X34066666Y3957143D01*
X33923809Y3900000D01*
X33828571Y3785715D01*
X33780952Y3671429D01*
X33733333Y3442858D01*
X33733333Y3271429D01*
X33780952Y3042858D01*
X33828571Y2928572D01*
X33923809Y2814286D01*
X34066666Y2757143D01*
X34161904Y2757143D01*
X34304761Y2814286D01*
X34352380Y2871429D01*
X34352380Y3271429D01*
X34161904Y3271429D01*
X35733333Y3957143D02*
X35923809Y3957143D01*
X36019047Y3900000D01*
X36114285Y3785715D01*
X36161904Y3557143D01*
X36161904Y3157143D01*
X36114285Y2928572D01*
X36019047Y2814286D01*
X35923809Y2757143D01*
X35733333Y2757143D01*
X35638095Y2814286D01*
X35542857Y2928572D01*
X35495238Y3157143D01*
X35495238Y3557143D01*
X35542857Y3785715D01*
X35638095Y3900000D01*
X35733333Y3957143D01*
X36590476Y3957143D02*
X36590476Y2985715D01*
X36638095Y2871429D01*
X36685714Y2814286D01*
X36780952Y2757143D01*
X36971428Y2757143D01*
X37066666Y2814286D01*
X37114285Y2871429D01*
X37161904Y2985715D01*
X37161904Y3957143D01*
X37495238Y3957143D02*
X38066666Y3957143D01*
X37780952Y2757143D02*
X37780952Y3957143D01*
X11100000Y3900000D02*
X11004761Y3957143D01*
X10861904Y3957143D01*
X10719047Y3900000D01*
X10623809Y3785715D01*
X10576190Y3671429D01*
X10528571Y3442858D01*
X10528571Y3271429D01*
X10576190Y3042858D01*
X10623809Y2928572D01*
X10719047Y2814286D01*
X10861904Y2757143D01*
X10957142Y2757143D01*
X11100000Y2814286D01*
X11147619Y2871429D01*
X11147619Y3271429D01*
X10957142Y3271429D01*
X11528571Y3100000D02*
X12004761Y3100000D01*
X11433333Y2757143D02*
X11766666Y3957143D01*
X12100000Y2757143D01*
X12290476Y3957143D02*
X12861904Y3957143D01*
X12576190Y2757143D02*
X12576190Y3957143D01*
X13195238Y3385715D02*
X13528571Y3385715D01*
X13671428Y2757143D02*
X13195238Y2757143D01*
X13195238Y3957143D01*
X13671428Y3957143D01*
X11576190Y757143D02*
X11576190Y1957143D01*
X12052380Y757143D02*
X12052380Y1957143D01*
X12623809Y757143D01*
X12623809Y1957143D01*
D10*
X8111000Y4301000D02*
X4301000Y4301000D01*
X4301000Y4301000D02*
X4301000Y15223000D01*
X4301000Y15223000D02*
X13699000Y15223000D01*
X13699000Y15223000D02*
X13699000Y4301000D01*
X13699000Y4301000D02*
X9889000Y4301000D01*
X30111000Y4301000D02*
X26301000Y4301000D01*
X26301000Y4301000D02*
X26301000Y15223000D01*
X26301000Y15223000D02*
X35699000Y15223000D01*
X35699000Y15223000D02*
X35699000Y4301000D01*
X35699000Y4301000D02*
X31889000Y4301000D01*
X19111000Y4301000D02*
X15301000Y4301000D01*
X15301000Y4301000D02*
X15301000Y15223000D01*
X15301000Y15223000D02*
X24699000Y15223000D01*
X24699000Y15223000D02*
X24699000Y4301000D01*
X24699000Y4301000D02*
X20889000Y4301000D01*
X31953000Y29349000D02*
X31953000Y24269000D01*
X31953000Y24269000D02*
X30556000Y24269000D01*
X22047000Y29349000D02*
X22047000Y24269000D01*
X22047000Y24269000D02*
X23444000Y24269000D01*
X22047000Y32651000D02*
X22047000Y36080000D01*
X22047000Y36080000D02*
X31953000Y36080000D01*
X31953000Y36080000D02*
X31953000Y32651000D01*
X31953000Y73349000D02*
X31953000Y68269000D01*
X31953000Y68269000D02*
X30556000Y68269000D01*
X22047000Y73349000D02*
X22047000Y68269000D01*
X22047000Y68269000D02*
X23444000Y68269000D01*
X22047000Y76651000D02*
X22047000Y80080000D01*
X22047000Y80080000D02*
X31953000Y80080000D01*
X31953000Y80080000D02*
X31953000Y76651000D01*
X31953000Y95349000D02*
X31953000Y90269000D01*
X31953000Y90269000D02*
X30556000Y90269000D01*
X22047000Y95349000D02*
X22047000Y90269000D01*
X22047000Y90269000D02*
X23444000Y90269000D01*
X22047000Y98651000D02*
X22047000Y102080000D01*
X22047000Y102080000D02*
X31953000Y102080000D01*
X31953000Y102080000D02*
X31953000Y98651000D01*
X31953000Y51349000D02*
X31953000Y46269000D01*
X31953000Y46269000D02*
X30556000Y46269000D01*
X22047000Y51349000D02*
X22047000Y46269000D01*
X22047000Y46269000D02*
X23444000Y46269000D01*
X22047000Y54651000D02*
X22047000Y58080000D01*
X22047000Y58080000D02*
X31953000Y58080000D01*
X31953000Y58080000D02*
X31953000Y54651000D01*
X8111000Y37301000D02*
X4301000Y37301000D01*
X4301000Y37301000D02*
X4301000Y48223000D01*
X4301000Y48223000D02*
X13699000Y48223000D01*
X13699000Y48223000D02*
X13699000Y37301000D01*
X13699000Y37301000D02*
X9889000Y37301000D01*
X10494900Y98018124D02*
G75*
G03X7320000Y97670000I-1494900J-1018124D01*
G01*
X7332173Y96315636D02*
G75*
G03X10500000Y96000000I1667827J684364D01*
G01*
X10500000Y98000000D02*
X10500000Y97650000D01*
X10500000Y96000000D02*
X10500000Y96350000D01*
D12*
X6600000Y52500000D02*
G75*
G03X6600000Y52500000I-900000J0D01*
G01*
X32000000Y21500000D02*
G75*
G03X32000000Y21500000I-900000J0D01*
G01*
X32900000Y45100000D02*
G75*
G03X32900000Y45100000I-900000J0D01*
G01*
X34600000Y69800000D02*
G75*
G03X34600000Y69800000I-900000J0D01*
G01*
X34000000Y57400000D02*
G75*
G03X34000000Y57400000I-900000J0D01*
G01*
X20100000Y73500000D02*
G75*
G03X20100000Y73500000I-900000J0D01*
G01*
X14300000Y75800000D02*
G75*
G03X14300000Y75800000I-900000J0D01*
G01*
X34800000Y84400000D02*
G75*
G03X34800000Y84400000I-900000J0D01*
G01*
X21200000Y63200000D02*
G75*
G03X21200000Y63200000I-900000J0D01*
G01*
X28200000Y65700000D02*
G75*
G03X28200000Y65700000I-900000J0D01*
G01*
D10*
X13699000Y90191000D02*
X4301000Y90191000D01*
X4301000Y90191000D02*
X4301000Y81809000D01*
X4301000Y81809000D02*
X13699000Y81809000D01*
X13699000Y81809000D02*
X13699000Y90191000D01*
X10494900Y54018124D02*
G75*
G03X7320000Y53670000I-1494900J-1018124D01*
G01*
X7332173Y52315636D02*
G75*
G03X10500000Y52000000I1667827J684364D01*
G01*
X10500000Y54000000D02*
X10500000Y53650000D01*
X10500000Y52000000D02*
X10500000Y52350000D01*
X6400000Y1683334D02*
X6866666Y983334D01*
X6866666Y1683334D02*
X6400000Y983334D01*
X7100000Y1016667D02*
X7200000Y983334D01*
X7366666Y983334D01*
X7433333Y1016667D01*
X7466666Y1050000D01*
X7500000Y1116667D01*
X7500000Y1183334D01*
X7466666Y1250000D01*
X7433333Y1283334D01*
X7366666Y1316667D01*
X7233333Y1350000D01*
X7166666Y1383334D01*
X7133333Y1416667D01*
X7100000Y1483334D01*
X7100000Y1550000D01*
X7133333Y1616667D01*
X7166666Y1650000D01*
X7233333Y1683334D01*
X7400000Y1683334D01*
X7500000Y1650000D01*
X8166666Y983334D02*
X7766666Y983334D01*
X7966666Y983334D02*
X7966666Y1683334D01*
X7900000Y1583334D01*
X7833333Y1516667D01*
X7766666Y1483334D01*
X27500000Y3983334D02*
X27966666Y3283334D01*
X27966666Y3983334D02*
X27500000Y3283334D01*
X28200000Y3316667D02*
X28300000Y3283334D01*
X28466666Y3283334D01*
X28533333Y3316667D01*
X28566666Y3350000D01*
X28600000Y3416667D01*
X28600000Y3483334D01*
X28566666Y3550000D01*
X28533333Y3583334D01*
X28466666Y3616667D01*
X28333333Y3650000D01*
X28266666Y3683334D01*
X28233333Y3716667D01*
X28200000Y3783334D01*
X28200000Y3850000D01*
X28233333Y3916667D01*
X28266666Y3950000D01*
X28333333Y3983334D01*
X28500000Y3983334D01*
X28600000Y3950000D01*
X28866666Y3916667D02*
X28900000Y3950000D01*
X28966666Y3983334D01*
X29133333Y3983334D01*
X29200000Y3950000D01*
X29233333Y3916667D01*
X29266666Y3850000D01*
X29266666Y3783334D01*
X29233333Y3683334D01*
X28833333Y3283334D01*
X29266666Y3283334D01*
X16300000Y3983334D02*
X16766666Y3283334D01*
X16766666Y3983334D02*
X16300000Y3283334D01*
X17000000Y3316667D02*
X17100000Y3283334D01*
X17266666Y3283334D01*
X17333333Y3316667D01*
X17366666Y3350000D01*
X17400000Y3416667D01*
X17400000Y3483334D01*
X17366666Y3550000D01*
X17333333Y3583334D01*
X17266666Y3616667D01*
X17133333Y3650000D01*
X17066666Y3683334D01*
X17033333Y3716667D01*
X17000000Y3783334D01*
X17000000Y3850000D01*
X17033333Y3916667D01*
X17066666Y3950000D01*
X17133333Y3983334D01*
X17300000Y3983334D01*
X17400000Y3950000D01*
X17633333Y3983334D02*
X18066666Y3983334D01*
X17833333Y3716667D01*
X17933333Y3716667D01*
X18000000Y3683334D01*
X18033333Y3650000D01*
X18066666Y3583334D01*
X18066666Y3416667D01*
X18033333Y3350000D01*
X18000000Y3316667D01*
X17933333Y3283334D01*
X17733333Y3283334D01*
X17666666Y3316667D01*
X17633333Y3350000D01*
X32783333Y27283334D02*
X32550000Y27616667D01*
X32383333Y27283334D02*
X32383333Y27983334D01*
X32650000Y27983334D01*
X32716666Y27950000D01*
X32750000Y27916667D01*
X32783333Y27850000D01*
X32783333Y27750000D01*
X32750000Y27683334D01*
X32716666Y27650000D01*
X32650000Y27616667D01*
X32383333Y27616667D01*
X33050000Y27916667D02*
X33083333Y27950000D01*
X33150000Y27983334D01*
X33316666Y27983334D01*
X33383333Y27950000D01*
X33416666Y27916667D01*
X33450000Y27850000D01*
X33450000Y27783334D01*
X33416666Y27683334D01*
X33016666Y27283334D01*
X33450000Y27283334D01*
X34630333Y74683334D02*
X34397000Y75016667D01*
X34230333Y74683334D02*
X34230333Y75383334D01*
X34497000Y75383334D01*
X34563666Y75350000D01*
X34597000Y75316667D01*
X34630333Y75250000D01*
X34630333Y75150000D01*
X34597000Y75083334D01*
X34563666Y75050000D01*
X34497000Y75016667D01*
X34230333Y75016667D01*
X34863666Y75383334D02*
X35297000Y75383334D01*
X35063666Y75116667D01*
X35163666Y75116667D01*
X35230333Y75083334D01*
X35263666Y75050000D01*
X35297000Y74983334D01*
X35297000Y74816667D01*
X35263666Y74750000D01*
X35230333Y74716667D01*
X35163666Y74683334D01*
X34963666Y74683334D01*
X34897000Y74716667D01*
X34863666Y74750000D01*
X34630333Y96683334D02*
X34397000Y97016667D01*
X34230333Y96683334D02*
X34230333Y97383334D01*
X34497000Y97383334D01*
X34563666Y97350000D01*
X34597000Y97316667D01*
X34630333Y97250000D01*
X34630333Y97150000D01*
X34597000Y97083334D01*
X34563666Y97050000D01*
X34497000Y97016667D01*
X34230333Y97016667D01*
X35263666Y97383334D02*
X34930333Y97383334D01*
X34897000Y97050000D01*
X34930333Y97083334D01*
X34997000Y97116667D01*
X35163666Y97116667D01*
X35230333Y97083334D01*
X35263666Y97050000D01*
X35297000Y96983334D01*
X35297000Y96816667D01*
X35263666Y96750000D01*
X35230333Y96716667D01*
X35163666Y96683334D01*
X34997000Y96683334D01*
X34930333Y96716667D01*
X34897000Y96750000D01*
X32650000Y48983334D02*
X32416666Y49316667D01*
X32250000Y48983334D02*
X32250000Y49683334D01*
X32516666Y49683334D01*
X32583333Y49650000D01*
X32616666Y49616667D01*
X32650000Y49550000D01*
X32650000Y49450000D01*
X32616666Y49383334D01*
X32583333Y49350000D01*
X32516666Y49316667D01*
X32250000Y49316667D01*
X33316666Y48983334D02*
X32916666Y48983334D01*
X33116666Y48983334D02*
X33116666Y49683334D01*
X33050000Y49583334D01*
X32983333Y49516667D01*
X32916666Y49483334D01*
X33716666Y49383334D02*
X33650000Y49416667D01*
X33616666Y49450000D01*
X33583333Y49516667D01*
X33583333Y49550000D01*
X33616666Y49616667D01*
X33650000Y49650000D01*
X33716666Y49683334D01*
X33850000Y49683334D01*
X33916666Y49650000D01*
X33950000Y49616667D01*
X33983333Y49550000D01*
X33983333Y49516667D01*
X33950000Y49450000D01*
X33916666Y49416667D01*
X33850000Y49383334D01*
X33716666Y49383334D01*
X33650000Y49350000D01*
X33616666Y49316667D01*
X33583333Y49250000D01*
X33583333Y49116667D01*
X33616666Y49050000D01*
X33650000Y49016667D01*
X33716666Y48983334D01*
X33850000Y48983334D01*
X33916666Y49016667D01*
X33950000Y49050000D01*
X33983333Y49116667D01*
X33983333Y49250000D01*
X33950000Y49316667D01*
X33916666Y49350000D01*
X33850000Y49383334D01*
X13000000Y37083334D02*
X13466666Y36383334D01*
X13466666Y37083334D02*
X13000000Y36383334D01*
X13700000Y36416667D02*
X13800000Y36383334D01*
X13966666Y36383334D01*
X14033333Y36416667D01*
X14066666Y36450000D01*
X14100000Y36516667D01*
X14100000Y36583334D01*
X14066666Y36650000D01*
X14033333Y36683334D01*
X13966666Y36716667D01*
X13833333Y36750000D01*
X13766666Y36783334D01*
X13733333Y36816667D01*
X13700000Y36883334D01*
X13700000Y36950000D01*
X13733333Y37016667D01*
X13766666Y37050000D01*
X13833333Y37083334D01*
X14000000Y37083334D01*
X14100000Y37050000D01*
X14700000Y36850000D02*
X14700000Y36383334D01*
X14533333Y37116667D02*
X14366666Y36616667D01*
X14800000Y36616667D01*
X8550000Y99683334D02*
X8783333Y98983334D01*
X9016666Y99683334D01*
X9250000Y98983334D02*
X9250000Y99683334D01*
X9416666Y99683334D01*
X9516666Y99650000D01*
X9583333Y99583334D01*
X9616666Y99516667D01*
X9650000Y99383334D01*
X9650000Y99283334D01*
X9616666Y99150000D01*
X9583333Y99083334D01*
X9516666Y99016667D01*
X9416666Y98983334D01*
X9250000Y98983334D01*
X10316666Y98983334D02*
X9916666Y98983334D01*
X10116666Y98983334D02*
X10116666Y99683334D01*
X10050000Y99583334D01*
X9983333Y99516667D01*
X9916666Y99483334D01*
X10550000Y99683334D02*
X10983333Y99683334D01*
X10750000Y99416667D01*
X10850000Y99416667D01*
X10916666Y99383334D01*
X10950000Y99350000D01*
X10983333Y99283334D01*
X10983333Y99116667D01*
X10950000Y99050000D01*
X10916666Y99016667D01*
X10850000Y98983334D01*
X10650000Y98983334D01*
X10583333Y99016667D01*
X10550000Y99050000D01*
X3916666Y51583334D02*
X4316666Y51583334D01*
X4116666Y50883334D02*
X4116666Y51583334D01*
X4550000Y50883334D02*
X4550000Y51583334D01*
X4816666Y51583334D01*
X4883333Y51550000D01*
X4916666Y51516667D01*
X4950000Y51450000D01*
X4950000Y51350000D01*
X4916666Y51283334D01*
X4883333Y51250000D01*
X4816666Y51216667D01*
X4550000Y51216667D01*
X5616666Y50883334D02*
X5216666Y50883334D01*
X5416666Y50883334D02*
X5416666Y51583334D01*
X5350000Y51483334D01*
X5283333Y51416667D01*
X5216666Y51383334D01*
X32416666Y21883334D02*
X32816666Y21883334D01*
X32616666Y21183334D02*
X32616666Y21883334D01*
X33050000Y21183334D02*
X33050000Y21883334D01*
X33316666Y21883334D01*
X33383333Y21850000D01*
X33416666Y21816667D01*
X33450000Y21750000D01*
X33450000Y21650000D01*
X33416666Y21583334D01*
X33383333Y21550000D01*
X33316666Y21516667D01*
X33050000Y21516667D01*
X33716666Y21816667D02*
X33750000Y21850000D01*
X33816666Y21883334D01*
X33983333Y21883334D01*
X34050000Y21850000D01*
X34083333Y21816667D01*
X34116666Y21750000D01*
X34116666Y21683334D01*
X34083333Y21583334D01*
X33683333Y21183334D01*
X34116666Y21183334D01*
X30116666Y43983334D02*
X30516666Y43983334D01*
X30316666Y43283334D02*
X30316666Y43983334D01*
X30750000Y43283334D02*
X30750000Y43983334D01*
X31016666Y43983334D01*
X31083333Y43950000D01*
X31116666Y43916667D01*
X31150000Y43850000D01*
X31150000Y43750000D01*
X31116666Y43683334D01*
X31083333Y43650000D01*
X31016666Y43616667D01*
X30750000Y43616667D01*
X31383333Y43983334D02*
X31816666Y43983334D01*
X31583333Y43716667D01*
X31683333Y43716667D01*
X31750000Y43683334D01*
X31783333Y43650000D01*
X31816666Y43583334D01*
X31816666Y43416667D01*
X31783333Y43350000D01*
X31750000Y43316667D01*
X31683333Y43283334D01*
X31483333Y43283334D01*
X31416666Y43316667D01*
X31383333Y43350000D01*
X34916666Y70183334D02*
X35316666Y70183334D01*
X35116666Y69483334D02*
X35116666Y70183334D01*
X35550000Y69483334D02*
X35550000Y70183334D01*
X35816666Y70183334D01*
X35883333Y70150000D01*
X35916666Y70116667D01*
X35950000Y70050000D01*
X35950000Y69950000D01*
X35916666Y69883334D01*
X35883333Y69850000D01*
X35816666Y69816667D01*
X35550000Y69816667D01*
X36550000Y69950000D02*
X36550000Y69483334D01*
X36383333Y70216667D02*
X36216666Y69716667D01*
X36650000Y69716667D01*
X32216666Y56383334D02*
X32616666Y56383334D01*
X32416666Y55683334D02*
X32416666Y56383334D01*
X32850000Y55683334D02*
X32850000Y56383334D01*
X33116666Y56383334D01*
X33183333Y56350000D01*
X33216666Y56316667D01*
X33250000Y56250000D01*
X33250000Y56150000D01*
X33216666Y56083334D01*
X33183333Y56050000D01*
X33116666Y56016667D01*
X32850000Y56016667D01*
X33883333Y56383334D02*
X33550000Y56383334D01*
X33516666Y56050000D01*
X33550000Y56083334D01*
X33616666Y56116667D01*
X33783333Y56116667D01*
X33850000Y56083334D01*
X33883333Y56050000D01*
X33916666Y55983334D01*
X33916666Y55816667D01*
X33883333Y55750000D01*
X33850000Y55716667D01*
X33783333Y55683334D01*
X33616666Y55683334D01*
X33550000Y55716667D01*
X33516666Y55750000D01*
X16316666Y73783334D02*
X16716666Y73783334D01*
X16516666Y73083334D02*
X16516666Y73783334D01*
X16950000Y73083334D02*
X16950000Y73783334D01*
X17216666Y73783334D01*
X17283333Y73750000D01*
X17316666Y73716667D01*
X17350000Y73650000D01*
X17350000Y73550000D01*
X17316666Y73483334D01*
X17283333Y73450000D01*
X17216666Y73416667D01*
X16950000Y73416667D01*
X17950000Y73783334D02*
X17816666Y73783334D01*
X17750000Y73750000D01*
X17716666Y73716667D01*
X17650000Y73616667D01*
X17616666Y73483334D01*
X17616666Y73216667D01*
X17650000Y73150000D01*
X17683333Y73116667D01*
X17750000Y73083334D01*
X17883333Y73083334D01*
X17950000Y73116667D01*
X17983333Y73150000D01*
X18016666Y73216667D01*
X18016666Y73383334D01*
X17983333Y73450000D01*
X17950000Y73483334D01*
X17883333Y73516667D01*
X17750000Y73516667D01*
X17683333Y73483334D01*
X17650000Y73450000D01*
X17616666Y73383334D01*
X12616666Y74483334D02*
X13016666Y74483334D01*
X12816666Y73783334D02*
X12816666Y74483334D01*
X13250000Y73783334D02*
X13250000Y74483334D01*
X13516666Y74483334D01*
X13583333Y74450000D01*
X13616666Y74416667D01*
X13650000Y74350000D01*
X13650000Y74250000D01*
X13616666Y74183334D01*
X13583333Y74150000D01*
X13516666Y74116667D01*
X13250000Y74116667D01*
X13883333Y74483334D02*
X14350000Y74483334D01*
X14050000Y73783334D01*
X35116666Y84583334D02*
X35516666Y84583334D01*
X35316666Y83883334D02*
X35316666Y84583334D01*
X35750000Y83883334D02*
X35750000Y84583334D01*
X36016666Y84583334D01*
X36083333Y84550000D01*
X36116666Y84516667D01*
X36150000Y84450000D01*
X36150000Y84350000D01*
X36116666Y84283334D01*
X36083333Y84250000D01*
X36016666Y84216667D01*
X35750000Y84216667D01*
X36550000Y84283334D02*
X36483333Y84316667D01*
X36450000Y84350000D01*
X36416666Y84416667D01*
X36416666Y84450000D01*
X36450000Y84516667D01*
X36483333Y84550000D01*
X36550000Y84583334D01*
X36683333Y84583334D01*
X36750000Y84550000D01*
X36783333Y84516667D01*
X36816666Y84450000D01*
X36816666Y84416667D01*
X36783333Y84350000D01*
X36750000Y84316667D01*
X36683333Y84283334D01*
X36550000Y84283334D01*
X36483333Y84250000D01*
X36450000Y84216667D01*
X36416666Y84150000D01*
X36416666Y84016667D01*
X36450000Y83950000D01*
X36483333Y83916667D01*
X36550000Y83883334D01*
X36683333Y83883334D01*
X36750000Y83916667D01*
X36783333Y83950000D01*
X36816666Y84016667D01*
X36816666Y84150000D01*
X36783333Y84216667D01*
X36750000Y84250000D01*
X36683333Y84283334D01*
X19416666Y62183334D02*
X19816666Y62183334D01*
X19616666Y61483334D02*
X19616666Y62183334D01*
X20050000Y61483334D02*
X20050000Y62183334D01*
X20316666Y62183334D01*
X20383333Y62150000D01*
X20416666Y62116667D01*
X20450000Y62050000D01*
X20450000Y61950000D01*
X20416666Y61883334D01*
X20383333Y61850000D01*
X20316666Y61816667D01*
X20050000Y61816667D01*
X20783333Y61483334D02*
X20916666Y61483334D01*
X20983333Y61516667D01*
X21016666Y61550000D01*
X21083333Y61650000D01*
X21116666Y61783334D01*
X21116666Y62050000D01*
X21083333Y62116667D01*
X21050000Y62150000D01*
X20983333Y62183334D01*
X20850000Y62183334D01*
X20783333Y62150000D01*
X20750000Y62116667D01*
X20716666Y62050000D01*
X20716666Y61883334D01*
X20750000Y61816667D01*
X20783333Y61783334D01*
X20850000Y61750000D01*
X20983333Y61750000D01*
X21050000Y61783334D01*
X21083333Y61816667D01*
X21116666Y61883334D01*
X26083333Y64683334D02*
X26483333Y64683334D01*
X26283333Y63983334D02*
X26283333Y64683334D01*
X26716666Y63983334D02*
X26716666Y64683334D01*
X26983333Y64683334D01*
X27050000Y64650000D01*
X27083333Y64616667D01*
X27116666Y64550000D01*
X27116666Y64450000D01*
X27083333Y64383334D01*
X27050000Y64350000D01*
X26983333Y64316667D01*
X26716666Y64316667D01*
X27783333Y63983334D02*
X27383333Y63983334D01*
X27583333Y63983334D02*
X27583333Y64683334D01*
X27516666Y64583334D01*
X27450000Y64516667D01*
X27383333Y64483334D01*
X28216666Y64683334D02*
X28283333Y64683334D01*
X28350000Y64650000D01*
X28383333Y64616667D01*
X28416666Y64550000D01*
X28450000Y64416667D01*
X28450000Y64250000D01*
X28416666Y64116667D01*
X28383333Y64050000D01*
X28350000Y64016667D01*
X28283333Y63983334D01*
X28216666Y63983334D01*
X28150000Y64016667D01*
X28116666Y64050000D01*
X28083333Y64116667D01*
X28050000Y64250000D01*
X28050000Y64416667D01*
X28083333Y64550000D01*
X28116666Y64616667D01*
X28150000Y64650000D01*
X28216666Y64683334D01*
X14066666Y89616667D02*
X14166666Y89583334D01*
X14333333Y89583334D01*
X14400000Y89616667D01*
X14433333Y89650000D01*
X14466666Y89716667D01*
X14466666Y89783334D01*
X14433333Y89850000D01*
X14400000Y89883334D01*
X14333333Y89916667D01*
X14200000Y89950000D01*
X14133333Y89983334D01*
X14100000Y90016667D01*
X14066666Y90083334D01*
X14066666Y90150000D01*
X14100000Y90216667D01*
X14133333Y90250000D01*
X14200000Y90283334D01*
X14366666Y90283334D01*
X14466666Y90250000D01*
X14700000Y90283334D02*
X14866666Y89583334D01*
X15000000Y90083334D01*
X15133333Y89583334D01*
X15300000Y90283334D01*
X15933333Y89583334D02*
X15533333Y89583334D01*
X15733333Y89583334D02*
X15733333Y90283334D01*
X15666666Y90183334D01*
X15600000Y90116667D01*
X15533333Y90083334D01*
X13050000Y53483334D02*
X13283333Y52783334D01*
X13516666Y53483334D01*
X13750000Y52783334D02*
X13750000Y53483334D01*
X13916666Y53483334D01*
X14016666Y53450000D01*
X14083333Y53383334D01*
X14116666Y53316667D01*
X14150000Y53183334D01*
X14150000Y53083334D01*
X14116666Y52950000D01*
X14083333Y52883334D01*
X14016666Y52816667D01*
X13916666Y52783334D01*
X13750000Y52783334D01*
X14816666Y52783334D02*
X14416666Y52783334D01*
X14616666Y52783334D02*
X14616666Y53483334D01*
X14550000Y53383334D01*
X14483333Y53316667D01*
X14416666Y53283334D01*
X15416666Y53483334D02*
X15283333Y53483334D01*
X15216666Y53450000D01*
X15183333Y53416667D01*
X15116666Y53316667D01*
X15083333Y53183334D01*
X15083333Y52916667D01*
X15116666Y52850000D01*
X15150000Y52816667D01*
X15216666Y52783334D01*
X15350000Y52783334D01*
X15416666Y52816667D01*
X15450000Y52850000D01*
X15483333Y52916667D01*
X15483333Y53083334D01*
X15450000Y53150000D01*
X15416666Y53183334D01*
X15350000Y53216667D01*
X15216666Y53216667D01*
X15150000Y53183334D01*
X15116666Y53150000D01*
X15083333Y53083334D01*
M02*
