%FSLAX45Y45*%
G04 Gerber Fmt 4.5, Leading zero omitted, Abs format (unit mm)*
G04 Created by KiCad (PCBNEW (5.0.0-rc2)) date Wed Jul  8 18:30:52 2020*
%MOMM*%
%LPD*%
G01*
G04 APERTURE LIST*
%ADD10C,0.150000*%
%ADD11C,0.200000*%
%ADD12C,0.300000*%
G04 APERTURE END LIST*
D10*
X0Y12850000D02*
X0Y0D01*
X4020000Y12850000D02*
X0Y12850000D01*
X4020000Y0D02*
X4020000Y12850000D01*
X0Y0D02*
X4020000Y0D01*
D11*
X750000Y6460000D02*
X1070000Y6140000D01*
X1070000Y6460000D02*
X750000Y6140000D01*
X750000Y10860000D02*
X1070000Y10540000D01*
X1070000Y10860000D02*
X750000Y10540000D01*
X590000Y12710000D02*
X910000Y12390000D01*
X910000Y12710000D02*
X590000Y12390000D01*
X660000Y12400000D02*
X840000Y12400000D01*
X660000Y12700000D02*
X840000Y12700000D01*
X840000Y12400000D02*
G75*
G03X840000Y12700000I0J150000D01*
G01*
X660000Y12700000D02*
G75*
G03X660000Y12400000I0J-150000D01*
G01*
X590000Y460000D02*
X910000Y140000D01*
X910000Y460000D02*
X590000Y140000D01*
X660000Y150000D02*
X840000Y150000D01*
X660000Y450000D02*
X840000Y450000D01*
X840000Y150000D02*
G75*
G03X840000Y450000I0J150000D01*
G01*
X660000Y450000D02*
G75*
G03X660000Y150000I0J-150000D01*
G01*
X1235000Y5200000D02*
G75*
G03X1235000Y5200000I-325000J0D01*
G01*
X1235000Y9600000D02*
G75*
G03X1235000Y9600000I-325000J0D01*
G01*
X2335000Y1900000D02*
G75*
G03X2335000Y1900000I-325000J0D01*
G01*
X1235000Y1900000D02*
G75*
G03X1235000Y1900000I-325000J0D01*
G01*
X3435000Y1900000D02*
G75*
G03X3435000Y1900000I-325000J0D01*
G01*
X2710000Y6675000D02*
X2710000Y5925000D01*
X2335000Y6300000D02*
X3085000Y6300000D01*
X2710000Y4475000D02*
X2710000Y3725000D01*
X2335000Y4100000D02*
X3085000Y4100000D01*
X2710000Y8875000D02*
X2710000Y8125000D01*
X2335000Y8500000D02*
X3085000Y8500000D01*
X2710000Y11075000D02*
X2710000Y10325000D01*
X2335000Y10700000D02*
X3085000Y10700000D01*
D12*
X278928Y-473214D02*
X278928Y-173214D01*
X350357Y-173214D01*
X393214Y-187500D01*
X421786Y-216071D01*
X436071Y-244643D01*
X450357Y-301786D01*
X450357Y-344643D01*
X436071Y-401786D01*
X421786Y-430357D01*
X393214Y-458929D01*
X350357Y-473214D01*
X278928Y-473214D01*
X578928Y-473214D02*
X578928Y-273214D01*
X578928Y-330357D02*
X593214Y-301786D01*
X607500Y-287500D01*
X636071Y-273214D01*
X664643Y-273214D01*
X764643Y-473214D02*
X764643Y-273214D01*
X764643Y-173214D02*
X750357Y-187500D01*
X764643Y-201786D01*
X778928Y-187500D01*
X764643Y-173214D01*
X764643Y-201786D01*
X950357Y-473214D02*
X921786Y-458929D01*
X907500Y-430357D01*
X907500Y-173214D01*
X1107500Y-473214D02*
X1078928Y-458929D01*
X1064643Y-430357D01*
X1064643Y-173214D01*
X1450357Y-473214D02*
X1450357Y-173214D01*
X1550357Y-387500D01*
X1650357Y-173214D01*
X1650357Y-473214D01*
X1921786Y-473214D02*
X1921786Y-316072D01*
X1907500Y-287500D01*
X1878928Y-273214D01*
X1821786Y-273214D01*
X1793214Y-287500D01*
X1921786Y-458929D02*
X1893214Y-473214D01*
X1821786Y-473214D01*
X1793214Y-458929D01*
X1778928Y-430357D01*
X1778928Y-401786D01*
X1793214Y-373214D01*
X1821786Y-358929D01*
X1893214Y-358929D01*
X1921786Y-344643D01*
X2064643Y-273214D02*
X2064643Y-573214D01*
X2064643Y-287500D02*
X2093214Y-273214D01*
X2150357Y-273214D01*
X2178928Y-287500D01*
X2193214Y-301786D01*
X2207500Y-330357D01*
X2207500Y-416071D01*
X2193214Y-444643D01*
X2178928Y-458929D01*
X2150357Y-473214D01*
X2093214Y-473214D01*
X2064643Y-458929D01*
X2336071Y-444643D02*
X2350357Y-458929D01*
X2336071Y-473214D01*
X2321786Y-458929D01*
X2336071Y-444643D01*
X2336071Y-473214D01*
X2336071Y-287500D02*
X2350357Y-301786D01*
X2336071Y-316072D01*
X2321786Y-301786D01*
X2336071Y-287500D01*
X2336071Y-316072D01*
X-327500Y-807500D02*
X-7500Y-1127500D01*
X-7500Y-807500D02*
X-327500Y-1127500D01*
X250357Y-803214D02*
X436071Y-803214D01*
X336071Y-917500D01*
X378928Y-917500D01*
X407500Y-931786D01*
X421786Y-946071D01*
X436071Y-974643D01*
X436071Y-1046071D01*
X421786Y-1074643D01*
X407500Y-1088929D01*
X378928Y-1103214D01*
X293214Y-1103214D01*
X264643Y-1088929D01*
X250357Y-1074643D01*
X564643Y-1074643D02*
X578928Y-1088929D01*
X564643Y-1103214D01*
X550357Y-1088929D01*
X564643Y-1074643D01*
X564643Y-1103214D01*
X693214Y-831786D02*
X707500Y-817500D01*
X736071Y-803214D01*
X807500Y-803214D01*
X836071Y-817500D01*
X850357Y-831786D01*
X864643Y-860357D01*
X864643Y-888929D01*
X850357Y-931786D01*
X678928Y-1103214D01*
X864643Y-1103214D01*
X1050357Y-803214D02*
X1078928Y-803214D01*
X1107500Y-817500D01*
X1121786Y-831786D01*
X1136071Y-860357D01*
X1150357Y-917500D01*
X1150357Y-988929D01*
X1136071Y-1046071D01*
X1121786Y-1074643D01*
X1107500Y-1088929D01*
X1078928Y-1103214D01*
X1050357Y-1103214D01*
X1021786Y-1088929D01*
X1007500Y-1074643D01*
X993214Y-1046071D01*
X978928Y-988929D01*
X978928Y-917500D01*
X993214Y-860357D01*
X1007500Y-831786D01*
X1021786Y-817500D01*
X1050357Y-803214D01*
X1278928Y-1103214D02*
X1278928Y-903214D01*
X1278928Y-931786D02*
X1293214Y-917500D01*
X1321786Y-903214D01*
X1364643Y-903214D01*
X1393214Y-917500D01*
X1407500Y-946071D01*
X1407500Y-1103214D01*
X1407500Y-946071D02*
X1421786Y-917500D01*
X1450357Y-903214D01*
X1493214Y-903214D01*
X1521786Y-917500D01*
X1536071Y-946071D01*
X1536071Y-1103214D01*
X1678928Y-1103214D02*
X1678928Y-903214D01*
X1678928Y-931786D02*
X1693214Y-917500D01*
X1721786Y-903214D01*
X1764643Y-903214D01*
X1793214Y-917500D01*
X1807500Y-946071D01*
X1807500Y-1103214D01*
X1807500Y-946071D02*
X1821786Y-917500D01*
X1850357Y-903214D01*
X1893214Y-903214D01*
X1921786Y-917500D01*
X1936071Y-946071D01*
X1936071Y-1103214D01*
X2521786Y-788929D02*
X2264643Y-1174643D01*
X2907500Y-803214D02*
X2936071Y-803214D01*
X2964643Y-817500D01*
X2978928Y-831786D01*
X2993214Y-860357D01*
X3007500Y-917500D01*
X3007500Y-988929D01*
X2993214Y-1046071D01*
X2978928Y-1074643D01*
X2964643Y-1088929D01*
X2936071Y-1103214D01*
X2907500Y-1103214D01*
X2878928Y-1088929D01*
X2864643Y-1074643D01*
X2850357Y-1046071D01*
X2836071Y-988929D01*
X2836071Y-917500D01*
X2850357Y-860357D01*
X2864643Y-831786D01*
X2878928Y-817500D01*
X2907500Y-803214D01*
X3136071Y-1074643D02*
X3150357Y-1088929D01*
X3136071Y-1103214D01*
X3121786Y-1088929D01*
X3136071Y-1074643D01*
X3136071Y-1103214D01*
X3436071Y-1103214D02*
X3264643Y-1103214D01*
X3350357Y-1103214D02*
X3350357Y-803214D01*
X3321786Y-846071D01*
X3293214Y-874643D01*
X3264643Y-888929D01*
X3550357Y-831786D02*
X3564643Y-817500D01*
X3593214Y-803214D01*
X3664643Y-803214D01*
X3693214Y-817500D01*
X3707500Y-831786D01*
X3721786Y-860357D01*
X3721786Y-888929D01*
X3707500Y-931786D01*
X3536071Y-1103214D01*
X3721786Y-1103214D01*
X3978928Y-803214D02*
X3921786Y-803214D01*
X3893214Y-817500D01*
X3878928Y-831786D01*
X3850357Y-874643D01*
X3836071Y-931786D01*
X3836071Y-1046071D01*
X3850357Y-1074643D01*
X3864643Y-1088929D01*
X3893214Y-1103214D01*
X3950357Y-1103214D01*
X3978928Y-1088929D01*
X3993214Y-1074643D01*
X4007500Y-1046071D01*
X4007500Y-974643D01*
X3993214Y-946071D01*
X3978928Y-931786D01*
X3950357Y-917500D01*
X3893214Y-917500D01*
X3864643Y-931786D01*
X3850357Y-946071D01*
X3836071Y-974643D01*
X4121786Y-803214D02*
X4121786Y-860357D01*
X4236071Y-803214D02*
X4236071Y-860357D01*
X4678928Y-1217500D02*
X4664643Y-1203214D01*
X4636071Y-1160357D01*
X4621786Y-1131786D01*
X4607500Y-1088929D01*
X4593214Y-1017500D01*
X4593214Y-960357D01*
X4607500Y-888929D01*
X4621786Y-846071D01*
X4636071Y-817500D01*
X4664643Y-774643D01*
X4678928Y-760357D01*
X4778928Y-831786D02*
X4793214Y-817500D01*
X4821786Y-803214D01*
X4893214Y-803214D01*
X4921786Y-817500D01*
X4936071Y-831786D01*
X4950357Y-860357D01*
X4950357Y-888929D01*
X4936071Y-931786D01*
X4764643Y-1103214D01*
X4950357Y-1103214D01*
X5307500Y-1103214D02*
X5307500Y-803214D01*
X5436071Y-1103214D02*
X5436071Y-946071D01*
X5421786Y-917500D01*
X5393214Y-903214D01*
X5350357Y-903214D01*
X5321786Y-917500D01*
X5307500Y-931786D01*
X5621786Y-1103214D02*
X5593214Y-1088929D01*
X5578928Y-1074643D01*
X5564643Y-1046071D01*
X5564643Y-960357D01*
X5578928Y-931786D01*
X5593214Y-917500D01*
X5621786Y-903214D01*
X5664643Y-903214D01*
X5693214Y-917500D01*
X5707500Y-931786D01*
X5721786Y-960357D01*
X5721786Y-1046071D01*
X5707500Y-1074643D01*
X5693214Y-1088929D01*
X5664643Y-1103214D01*
X5621786Y-1103214D01*
X5893214Y-1103214D02*
X5864643Y-1088929D01*
X5850357Y-1060357D01*
X5850357Y-803214D01*
X6121786Y-1088929D02*
X6093214Y-1103214D01*
X6036071Y-1103214D01*
X6007500Y-1088929D01*
X5993214Y-1060357D01*
X5993214Y-946071D01*
X6007500Y-917500D01*
X6036071Y-903214D01*
X6093214Y-903214D01*
X6121786Y-917500D01*
X6136071Y-946071D01*
X6136071Y-974643D01*
X5993214Y-1003214D01*
X6250357Y-1088929D02*
X6278928Y-1103214D01*
X6336071Y-1103214D01*
X6364643Y-1088929D01*
X6378928Y-1060357D01*
X6378928Y-1046071D01*
X6364643Y-1017500D01*
X6336071Y-1003214D01*
X6293214Y-1003214D01*
X6264643Y-988929D01*
X6250357Y-960357D01*
X6250357Y-946071D01*
X6264643Y-917500D01*
X6293214Y-903214D01*
X6336071Y-903214D01*
X6364643Y-917500D01*
X6736071Y-988929D02*
X6964643Y-988929D01*
X6850357Y-1103214D02*
X6850357Y-874643D01*
X7321786Y-831786D02*
X7336071Y-817500D01*
X7364643Y-803214D01*
X7436071Y-803214D01*
X7464643Y-817500D01*
X7478928Y-831786D01*
X7493214Y-860357D01*
X7493214Y-888929D01*
X7478928Y-931786D01*
X7307500Y-1103214D01*
X7493214Y-1103214D01*
X7836071Y-1088929D02*
X7864643Y-1103214D01*
X7921786Y-1103214D01*
X7950357Y-1088929D01*
X7964643Y-1060357D01*
X7964643Y-1046071D01*
X7950357Y-1017500D01*
X7921786Y-1003214D01*
X7878928Y-1003214D01*
X7850357Y-988929D01*
X7836071Y-960357D01*
X7836071Y-946071D01*
X7850357Y-917500D01*
X7878928Y-903214D01*
X7921786Y-903214D01*
X7950357Y-917500D01*
X8136071Y-1103214D02*
X8107500Y-1088929D01*
X8093214Y-1060357D01*
X8093214Y-803214D01*
X8293214Y-1103214D02*
X8264643Y-1088929D01*
X8250357Y-1074643D01*
X8236071Y-1046071D01*
X8236071Y-960357D01*
X8250357Y-931786D01*
X8264643Y-917500D01*
X8293214Y-903214D01*
X8336071Y-903214D01*
X8364643Y-917500D01*
X8378928Y-931786D01*
X8393214Y-960357D01*
X8393214Y-1046071D01*
X8378928Y-1074643D01*
X8364643Y-1088929D01*
X8336071Y-1103214D01*
X8293214Y-1103214D01*
X8478928Y-903214D02*
X8593214Y-903214D01*
X8521786Y-803214D02*
X8521786Y-1060357D01*
X8536071Y-1088929D01*
X8564643Y-1103214D01*
X8593214Y-1103214D01*
X8678928Y-1088929D02*
X8707500Y-1103214D01*
X8764643Y-1103214D01*
X8793214Y-1088929D01*
X8807500Y-1060357D01*
X8807500Y-1046071D01*
X8793214Y-1017500D01*
X8764643Y-1003214D01*
X8721786Y-1003214D01*
X8693214Y-988929D01*
X8678928Y-960357D01*
X8678928Y-946071D01*
X8693214Y-917500D01*
X8721786Y-903214D01*
X8764643Y-903214D01*
X8793214Y-917500D01*
X8907500Y-1217500D02*
X8921786Y-1203214D01*
X8950357Y-1160357D01*
X8964643Y-1131786D01*
X8978928Y-1088929D01*
X8993214Y-1017500D01*
X8993214Y-960357D01*
X8978928Y-888929D01*
X8964643Y-846071D01*
X8950357Y-817500D01*
X8921786Y-774643D01*
X8907500Y-760357D01*
X9450357Y-1217500D02*
X9436071Y-1203214D01*
X9407500Y-1160357D01*
X9393214Y-1131786D01*
X9378928Y-1088929D01*
X9364643Y-1017500D01*
X9364643Y-960357D01*
X9378928Y-888929D01*
X9393214Y-846071D01*
X9407500Y-817500D01*
X9436071Y-774643D01*
X9450357Y-760357D01*
X9564643Y-903214D02*
X9564643Y-1103214D01*
X9564643Y-931786D02*
X9578928Y-917500D01*
X9607500Y-903214D01*
X9650357Y-903214D01*
X9678928Y-917500D01*
X9693214Y-946071D01*
X9693214Y-1103214D01*
X9878928Y-1103214D02*
X9850357Y-1088929D01*
X9836071Y-1074643D01*
X9821786Y-1046071D01*
X9821786Y-960357D01*
X9836071Y-931786D01*
X9850357Y-917500D01*
X9878928Y-903214D01*
X9921786Y-903214D01*
X9950357Y-917500D01*
X9964643Y-931786D01*
X9978928Y-960357D01*
X9978928Y-1046071D01*
X9964643Y-1074643D01*
X9950357Y-1088929D01*
X9921786Y-1103214D01*
X9878928Y-1103214D01*
X10064643Y-903214D02*
X10178928Y-903214D01*
X10107500Y-803214D02*
X10107500Y-1060357D01*
X10121786Y-1088929D01*
X10150357Y-1103214D01*
X10178928Y-1103214D01*
X10507500Y-903214D02*
X10507500Y-1203214D01*
X10507500Y-917500D02*
X10536071Y-903214D01*
X10593214Y-903214D01*
X10621786Y-917500D01*
X10636071Y-931786D01*
X10650357Y-960357D01*
X10650357Y-1046071D01*
X10636071Y-1074643D01*
X10621786Y-1088929D01*
X10593214Y-1103214D01*
X10536071Y-1103214D01*
X10507500Y-1088929D01*
X10821786Y-1103214D02*
X10793214Y-1088929D01*
X10778928Y-1060357D01*
X10778928Y-803214D01*
X11064643Y-1103214D02*
X11064643Y-946071D01*
X11050357Y-917500D01*
X11021786Y-903214D01*
X10964643Y-903214D01*
X10936071Y-917500D01*
X11064643Y-1088929D02*
X11036071Y-1103214D01*
X10964643Y-1103214D01*
X10936071Y-1088929D01*
X10921786Y-1060357D01*
X10921786Y-1031786D01*
X10936071Y-1003214D01*
X10964643Y-988929D01*
X11036071Y-988929D01*
X11064643Y-974643D01*
X11164643Y-903214D02*
X11278928Y-903214D01*
X11207500Y-803214D02*
X11207500Y-1060357D01*
X11221786Y-1088929D01*
X11250357Y-1103214D01*
X11278928Y-1103214D01*
X11493214Y-1088929D02*
X11464643Y-1103214D01*
X11407500Y-1103214D01*
X11378928Y-1088929D01*
X11364643Y-1060357D01*
X11364643Y-946071D01*
X11378928Y-917500D01*
X11407500Y-903214D01*
X11464643Y-903214D01*
X11493214Y-917500D01*
X11507500Y-946071D01*
X11507500Y-974643D01*
X11364643Y-1003214D01*
X11764643Y-1103214D02*
X11764643Y-803214D01*
X11764643Y-1088929D02*
X11736071Y-1103214D01*
X11678928Y-1103214D01*
X11650357Y-1088929D01*
X11636071Y-1074643D01*
X11621786Y-1046071D01*
X11621786Y-960357D01*
X11636071Y-931786D01*
X11650357Y-917500D01*
X11678928Y-903214D01*
X11736071Y-903214D01*
X11764643Y-917500D01*
X11878928Y-1217500D02*
X11893214Y-1203214D01*
X11921786Y-1160357D01*
X11936071Y-1131786D01*
X11950357Y-1088929D01*
X11964643Y-1017500D01*
X11964643Y-960357D01*
X11950357Y-888929D01*
X11936071Y-846071D01*
X11921786Y-817500D01*
X11893214Y-774643D01*
X11878928Y-760357D01*
X-7500Y-1417500D02*
G75*
G03X-7500Y-1417500I-325000J0D01*
G01*
X407500Y-1253214D02*
X350357Y-1253214D01*
X321786Y-1267500D01*
X307500Y-1281786D01*
X278928Y-1324643D01*
X264643Y-1381786D01*
X264643Y-1496071D01*
X278928Y-1524643D01*
X293214Y-1538929D01*
X321786Y-1553214D01*
X378928Y-1553214D01*
X407500Y-1538929D01*
X421786Y-1524643D01*
X436071Y-1496071D01*
X436071Y-1424643D01*
X421786Y-1396072D01*
X407500Y-1381786D01*
X378928Y-1367500D01*
X321786Y-1367500D01*
X293214Y-1381786D01*
X278928Y-1396072D01*
X264643Y-1424643D01*
X564643Y-1524643D02*
X578928Y-1538929D01*
X564643Y-1553214D01*
X550357Y-1538929D01*
X564643Y-1524643D01*
X564643Y-1553214D01*
X850357Y-1253214D02*
X707500Y-1253214D01*
X693214Y-1396072D01*
X707500Y-1381786D01*
X736071Y-1367500D01*
X807500Y-1367500D01*
X836071Y-1381786D01*
X850357Y-1396072D01*
X864643Y-1424643D01*
X864643Y-1496071D01*
X850357Y-1524643D01*
X836071Y-1538929D01*
X807500Y-1553214D01*
X736071Y-1553214D01*
X707500Y-1538929D01*
X693214Y-1524643D01*
X1050357Y-1253214D02*
X1078928Y-1253214D01*
X1107500Y-1267500D01*
X1121786Y-1281786D01*
X1136071Y-1310357D01*
X1150357Y-1367500D01*
X1150357Y-1438929D01*
X1136071Y-1496071D01*
X1121786Y-1524643D01*
X1107500Y-1538929D01*
X1078928Y-1553214D01*
X1050357Y-1553214D01*
X1021786Y-1538929D01*
X1007500Y-1524643D01*
X993214Y-1496071D01*
X978928Y-1438929D01*
X978928Y-1367500D01*
X993214Y-1310357D01*
X1007500Y-1281786D01*
X1021786Y-1267500D01*
X1050357Y-1253214D01*
X1278928Y-1553214D02*
X1278928Y-1353214D01*
X1278928Y-1381786D02*
X1293214Y-1367500D01*
X1321786Y-1353214D01*
X1364643Y-1353214D01*
X1393214Y-1367500D01*
X1407500Y-1396072D01*
X1407500Y-1553214D01*
X1407500Y-1396072D02*
X1421786Y-1367500D01*
X1450357Y-1353214D01*
X1493214Y-1353214D01*
X1521786Y-1367500D01*
X1536071Y-1396072D01*
X1536071Y-1553214D01*
X1678928Y-1553214D02*
X1678928Y-1353214D01*
X1678928Y-1381786D02*
X1693214Y-1367500D01*
X1721786Y-1353214D01*
X1764643Y-1353214D01*
X1793214Y-1367500D01*
X1807500Y-1396072D01*
X1807500Y-1553214D01*
X1807500Y-1396072D02*
X1821786Y-1367500D01*
X1850357Y-1353214D01*
X1893214Y-1353214D01*
X1921786Y-1367500D01*
X1936071Y-1396072D01*
X1936071Y-1553214D01*
X2521786Y-1238929D02*
X2264643Y-1624643D01*
X2907500Y-1253214D02*
X2936071Y-1253214D01*
X2964643Y-1267500D01*
X2978928Y-1281786D01*
X2993214Y-1310357D01*
X3007500Y-1367500D01*
X3007500Y-1438929D01*
X2993214Y-1496071D01*
X2978928Y-1524643D01*
X2964643Y-1538929D01*
X2936071Y-1553214D01*
X2907500Y-1553214D01*
X2878928Y-1538929D01*
X2864643Y-1524643D01*
X2850357Y-1496071D01*
X2836071Y-1438929D01*
X2836071Y-1367500D01*
X2850357Y-1310357D01*
X2864643Y-1281786D01*
X2878928Y-1267500D01*
X2907500Y-1253214D01*
X3136071Y-1524643D02*
X3150357Y-1538929D01*
X3136071Y-1553214D01*
X3121786Y-1538929D01*
X3136071Y-1524643D01*
X3136071Y-1553214D01*
X3264643Y-1281786D02*
X3278928Y-1267500D01*
X3307500Y-1253214D01*
X3378928Y-1253214D01*
X3407500Y-1267500D01*
X3421786Y-1281786D01*
X3436071Y-1310357D01*
X3436071Y-1338929D01*
X3421786Y-1381786D01*
X3250357Y-1553214D01*
X3436071Y-1553214D01*
X3707500Y-1253214D02*
X3564643Y-1253214D01*
X3550357Y-1396072D01*
X3564643Y-1381786D01*
X3593214Y-1367500D01*
X3664643Y-1367500D01*
X3693214Y-1381786D01*
X3707500Y-1396072D01*
X3721786Y-1424643D01*
X3721786Y-1496071D01*
X3707500Y-1524643D01*
X3693214Y-1538929D01*
X3664643Y-1553214D01*
X3593214Y-1553214D01*
X3564643Y-1538929D01*
X3550357Y-1524643D01*
X3978928Y-1253214D02*
X3921786Y-1253214D01*
X3893214Y-1267500D01*
X3878928Y-1281786D01*
X3850357Y-1324643D01*
X3836071Y-1381786D01*
X3836071Y-1496071D01*
X3850357Y-1524643D01*
X3864643Y-1538929D01*
X3893214Y-1553214D01*
X3950357Y-1553214D01*
X3978928Y-1538929D01*
X3993214Y-1524643D01*
X4007500Y-1496071D01*
X4007500Y-1424643D01*
X3993214Y-1396072D01*
X3978928Y-1381786D01*
X3950357Y-1367500D01*
X3893214Y-1367500D01*
X3864643Y-1381786D01*
X3850357Y-1396072D01*
X3836071Y-1424643D01*
X4121786Y-1253214D02*
X4121786Y-1310357D01*
X4236071Y-1253214D02*
X4236071Y-1310357D01*
X4678928Y-1667500D02*
X4664643Y-1653214D01*
X4636071Y-1610357D01*
X4621786Y-1581786D01*
X4607500Y-1538929D01*
X4593214Y-1467500D01*
X4593214Y-1410357D01*
X4607500Y-1338929D01*
X4621786Y-1296072D01*
X4636071Y-1267500D01*
X4664643Y-1224643D01*
X4678928Y-1210357D01*
X4936071Y-1253214D02*
X4793214Y-1253214D01*
X4778928Y-1396072D01*
X4793214Y-1381786D01*
X4821786Y-1367500D01*
X4893214Y-1367500D01*
X4921786Y-1381786D01*
X4936071Y-1396072D01*
X4950357Y-1424643D01*
X4950357Y-1496071D01*
X4936071Y-1524643D01*
X4921786Y-1538929D01*
X4893214Y-1553214D01*
X4821786Y-1553214D01*
X4793214Y-1538929D01*
X4778928Y-1524643D01*
X5307500Y-1553214D02*
X5307500Y-1253214D01*
X5436071Y-1553214D02*
X5436071Y-1396072D01*
X5421786Y-1367500D01*
X5393214Y-1353214D01*
X5350357Y-1353214D01*
X5321786Y-1367500D01*
X5307500Y-1381786D01*
X5621786Y-1553214D02*
X5593214Y-1538929D01*
X5578928Y-1524643D01*
X5564643Y-1496071D01*
X5564643Y-1410357D01*
X5578928Y-1381786D01*
X5593214Y-1367500D01*
X5621786Y-1353214D01*
X5664643Y-1353214D01*
X5693214Y-1367500D01*
X5707500Y-1381786D01*
X5721786Y-1410357D01*
X5721786Y-1496071D01*
X5707500Y-1524643D01*
X5693214Y-1538929D01*
X5664643Y-1553214D01*
X5621786Y-1553214D01*
X5893214Y-1553214D02*
X5864643Y-1538929D01*
X5850357Y-1510357D01*
X5850357Y-1253214D01*
X6121786Y-1538929D02*
X6093214Y-1553214D01*
X6036071Y-1553214D01*
X6007500Y-1538929D01*
X5993214Y-1510357D01*
X5993214Y-1396072D01*
X6007500Y-1367500D01*
X6036071Y-1353214D01*
X6093214Y-1353214D01*
X6121786Y-1367500D01*
X6136071Y-1396072D01*
X6136071Y-1424643D01*
X5993214Y-1453214D01*
X6250357Y-1538929D02*
X6278928Y-1553214D01*
X6336071Y-1553214D01*
X6364643Y-1538929D01*
X6378928Y-1510357D01*
X6378928Y-1496071D01*
X6364643Y-1467500D01*
X6336071Y-1453214D01*
X6293214Y-1453214D01*
X6264643Y-1438929D01*
X6250357Y-1410357D01*
X6250357Y-1396072D01*
X6264643Y-1367500D01*
X6293214Y-1353214D01*
X6336071Y-1353214D01*
X6364643Y-1367500D01*
X6478928Y-1667500D02*
X6493214Y-1653214D01*
X6521786Y-1610357D01*
X6536071Y-1581786D01*
X6550357Y-1538929D01*
X6564643Y-1467500D01*
X6564643Y-1410357D01*
X6550357Y-1338929D01*
X6536071Y-1296072D01*
X6521786Y-1267500D01*
X6493214Y-1224643D01*
X6478928Y-1210357D01*
X7021786Y-1667500D02*
X7007500Y-1653214D01*
X6978928Y-1610357D01*
X6964643Y-1581786D01*
X6950357Y-1538929D01*
X6936071Y-1467500D01*
X6936071Y-1410357D01*
X6950357Y-1338929D01*
X6964643Y-1296072D01*
X6978928Y-1267500D01*
X7007500Y-1224643D01*
X7021786Y-1210357D01*
X7136071Y-1353214D02*
X7136071Y-1553214D01*
X7136071Y-1381786D02*
X7150357Y-1367500D01*
X7178928Y-1353214D01*
X7221786Y-1353214D01*
X7250357Y-1367500D01*
X7264643Y-1396072D01*
X7264643Y-1553214D01*
X7450357Y-1553214D02*
X7421786Y-1538929D01*
X7407500Y-1524643D01*
X7393214Y-1496071D01*
X7393214Y-1410357D01*
X7407500Y-1381786D01*
X7421786Y-1367500D01*
X7450357Y-1353214D01*
X7493214Y-1353214D01*
X7521786Y-1367500D01*
X7536071Y-1381786D01*
X7550357Y-1410357D01*
X7550357Y-1496071D01*
X7536071Y-1524643D01*
X7521786Y-1538929D01*
X7493214Y-1553214D01*
X7450357Y-1553214D01*
X7636071Y-1353214D02*
X7750357Y-1353214D01*
X7678928Y-1253214D02*
X7678928Y-1510357D01*
X7693214Y-1538929D01*
X7721786Y-1553214D01*
X7750357Y-1553214D01*
X8078928Y-1353214D02*
X8078928Y-1653214D01*
X8078928Y-1367500D02*
X8107500Y-1353214D01*
X8164643Y-1353214D01*
X8193214Y-1367500D01*
X8207500Y-1381786D01*
X8221786Y-1410357D01*
X8221786Y-1496071D01*
X8207500Y-1524643D01*
X8193214Y-1538929D01*
X8164643Y-1553214D01*
X8107500Y-1553214D01*
X8078928Y-1538929D01*
X8393214Y-1553214D02*
X8364643Y-1538929D01*
X8350357Y-1510357D01*
X8350357Y-1253214D01*
X8636071Y-1553214D02*
X8636071Y-1396072D01*
X8621786Y-1367500D01*
X8593214Y-1353214D01*
X8536071Y-1353214D01*
X8507500Y-1367500D01*
X8636071Y-1538929D02*
X8607500Y-1553214D01*
X8536071Y-1553214D01*
X8507500Y-1538929D01*
X8493214Y-1510357D01*
X8493214Y-1481786D01*
X8507500Y-1453214D01*
X8536071Y-1438929D01*
X8607500Y-1438929D01*
X8636071Y-1424643D01*
X8736071Y-1353214D02*
X8850357Y-1353214D01*
X8778928Y-1253214D02*
X8778928Y-1510357D01*
X8793214Y-1538929D01*
X8821786Y-1553214D01*
X8850357Y-1553214D01*
X9064643Y-1538929D02*
X9036071Y-1553214D01*
X8978928Y-1553214D01*
X8950357Y-1538929D01*
X8936071Y-1510357D01*
X8936071Y-1396072D01*
X8950357Y-1367500D01*
X8978928Y-1353214D01*
X9036071Y-1353214D01*
X9064643Y-1367500D01*
X9078928Y-1396072D01*
X9078928Y-1424643D01*
X8936071Y-1453214D01*
X9336071Y-1553214D02*
X9336071Y-1253214D01*
X9336071Y-1538929D02*
X9307500Y-1553214D01*
X9250357Y-1553214D01*
X9221786Y-1538929D01*
X9207500Y-1524643D01*
X9193214Y-1496071D01*
X9193214Y-1410357D01*
X9207500Y-1381786D01*
X9221786Y-1367500D01*
X9250357Y-1353214D01*
X9307500Y-1353214D01*
X9336071Y-1367500D01*
X9450357Y-1667500D02*
X9464643Y-1653214D01*
X9493214Y-1610357D01*
X9507500Y-1581786D01*
X9521786Y-1538929D01*
X9536071Y-1467500D01*
X9536071Y-1410357D01*
X9521786Y-1338929D01*
X9507500Y-1296072D01*
X9493214Y-1267500D01*
X9464643Y-1224643D01*
X9450357Y-1210357D01*
X-382500Y-1822500D02*
X-382500Y-2572500D01*
X-757500Y-2197500D02*
X-7500Y-2197500D01*
X250357Y-2033214D02*
X450357Y-2033214D01*
X321786Y-2333214D01*
X564643Y-2304643D02*
X578928Y-2318929D01*
X564643Y-2333214D01*
X550357Y-2318929D01*
X564643Y-2304643D01*
X564643Y-2333214D01*
X850357Y-2033214D02*
X707500Y-2033214D01*
X693214Y-2176072D01*
X707500Y-2161786D01*
X736071Y-2147500D01*
X807500Y-2147500D01*
X836071Y-2161786D01*
X850357Y-2176072D01*
X864643Y-2204643D01*
X864643Y-2276072D01*
X850357Y-2304643D01*
X836071Y-2318929D01*
X807500Y-2333214D01*
X736071Y-2333214D01*
X707500Y-2318929D01*
X693214Y-2304643D01*
X1050357Y-2033214D02*
X1078928Y-2033214D01*
X1107500Y-2047500D01*
X1121786Y-2061786D01*
X1136071Y-2090357D01*
X1150357Y-2147500D01*
X1150357Y-2218929D01*
X1136071Y-2276072D01*
X1121786Y-2304643D01*
X1107500Y-2318929D01*
X1078928Y-2333214D01*
X1050357Y-2333214D01*
X1021786Y-2318929D01*
X1007500Y-2304643D01*
X993214Y-2276072D01*
X978928Y-2218929D01*
X978928Y-2147500D01*
X993214Y-2090357D01*
X1007500Y-2061786D01*
X1021786Y-2047500D01*
X1050357Y-2033214D01*
X1278928Y-2333214D02*
X1278928Y-2133214D01*
X1278928Y-2161786D02*
X1293214Y-2147500D01*
X1321786Y-2133214D01*
X1364643Y-2133214D01*
X1393214Y-2147500D01*
X1407500Y-2176072D01*
X1407500Y-2333214D01*
X1407500Y-2176072D02*
X1421786Y-2147500D01*
X1450357Y-2133214D01*
X1493214Y-2133214D01*
X1521786Y-2147500D01*
X1536071Y-2176072D01*
X1536071Y-2333214D01*
X1678928Y-2333214D02*
X1678928Y-2133214D01*
X1678928Y-2161786D02*
X1693214Y-2147500D01*
X1721786Y-2133214D01*
X1764643Y-2133214D01*
X1793214Y-2147500D01*
X1807500Y-2176072D01*
X1807500Y-2333214D01*
X1807500Y-2176072D02*
X1821786Y-2147500D01*
X1850357Y-2133214D01*
X1893214Y-2133214D01*
X1921786Y-2147500D01*
X1936071Y-2176072D01*
X1936071Y-2333214D01*
X2521786Y-2018929D02*
X2264643Y-2404643D01*
X2907500Y-2033214D02*
X2936071Y-2033214D01*
X2964643Y-2047500D01*
X2978928Y-2061786D01*
X2993214Y-2090357D01*
X3007500Y-2147500D01*
X3007500Y-2218929D01*
X2993214Y-2276072D01*
X2978928Y-2304643D01*
X2964643Y-2318929D01*
X2936071Y-2333214D01*
X2907500Y-2333214D01*
X2878928Y-2318929D01*
X2864643Y-2304643D01*
X2850357Y-2276072D01*
X2836071Y-2218929D01*
X2836071Y-2147500D01*
X2850357Y-2090357D01*
X2864643Y-2061786D01*
X2878928Y-2047500D01*
X2907500Y-2033214D01*
X3136071Y-2304643D02*
X3150357Y-2318929D01*
X3136071Y-2333214D01*
X3121786Y-2318929D01*
X3136071Y-2304643D01*
X3136071Y-2333214D01*
X3264643Y-2061786D02*
X3278928Y-2047500D01*
X3307500Y-2033214D01*
X3378928Y-2033214D01*
X3407500Y-2047500D01*
X3421786Y-2061786D01*
X3436071Y-2090357D01*
X3436071Y-2118929D01*
X3421786Y-2161786D01*
X3250357Y-2333214D01*
X3436071Y-2333214D01*
X3578928Y-2333214D02*
X3636071Y-2333214D01*
X3664643Y-2318929D01*
X3678928Y-2304643D01*
X3707500Y-2261786D01*
X3721786Y-2204643D01*
X3721786Y-2090357D01*
X3707500Y-2061786D01*
X3693214Y-2047500D01*
X3664643Y-2033214D01*
X3607500Y-2033214D01*
X3578928Y-2047500D01*
X3564643Y-2061786D01*
X3550357Y-2090357D01*
X3550357Y-2161786D01*
X3564643Y-2190357D01*
X3578928Y-2204643D01*
X3607500Y-2218929D01*
X3664643Y-2218929D01*
X3693214Y-2204643D01*
X3707500Y-2190357D01*
X3721786Y-2161786D01*
X3993214Y-2033214D02*
X3850357Y-2033214D01*
X3836071Y-2176072D01*
X3850357Y-2161786D01*
X3878928Y-2147500D01*
X3950357Y-2147500D01*
X3978928Y-2161786D01*
X3993214Y-2176072D01*
X4007500Y-2204643D01*
X4007500Y-2276072D01*
X3993214Y-2304643D01*
X3978928Y-2318929D01*
X3950357Y-2333214D01*
X3878928Y-2333214D01*
X3850357Y-2318929D01*
X3836071Y-2304643D01*
X4121786Y-2033214D02*
X4121786Y-2090357D01*
X4236071Y-2033214D02*
X4236071Y-2090357D01*
X4678928Y-2447500D02*
X4664643Y-2433214D01*
X4636071Y-2390357D01*
X4621786Y-2361786D01*
X4607500Y-2318929D01*
X4593214Y-2247500D01*
X4593214Y-2190357D01*
X4607500Y-2118929D01*
X4621786Y-2076071D01*
X4636071Y-2047500D01*
X4664643Y-2004643D01*
X4678928Y-1990357D01*
X4921786Y-2133214D02*
X4921786Y-2333214D01*
X4850357Y-2018929D02*
X4778928Y-2233214D01*
X4964643Y-2233214D01*
X5307500Y-2333214D02*
X5307500Y-2033214D01*
X5436071Y-2333214D02*
X5436071Y-2176072D01*
X5421786Y-2147500D01*
X5393214Y-2133214D01*
X5350357Y-2133214D01*
X5321786Y-2147500D01*
X5307500Y-2161786D01*
X5621786Y-2333214D02*
X5593214Y-2318929D01*
X5578928Y-2304643D01*
X5564643Y-2276072D01*
X5564643Y-2190357D01*
X5578928Y-2161786D01*
X5593214Y-2147500D01*
X5621786Y-2133214D01*
X5664643Y-2133214D01*
X5693214Y-2147500D01*
X5707500Y-2161786D01*
X5721786Y-2190357D01*
X5721786Y-2276072D01*
X5707500Y-2304643D01*
X5693214Y-2318929D01*
X5664643Y-2333214D01*
X5621786Y-2333214D01*
X5893214Y-2333214D02*
X5864643Y-2318929D01*
X5850357Y-2290357D01*
X5850357Y-2033214D01*
X6121786Y-2318929D02*
X6093214Y-2333214D01*
X6036071Y-2333214D01*
X6007500Y-2318929D01*
X5993214Y-2290357D01*
X5993214Y-2176072D01*
X6007500Y-2147500D01*
X6036071Y-2133214D01*
X6093214Y-2133214D01*
X6121786Y-2147500D01*
X6136071Y-2176072D01*
X6136071Y-2204643D01*
X5993214Y-2233214D01*
X6250357Y-2318929D02*
X6278928Y-2333214D01*
X6336071Y-2333214D01*
X6364643Y-2318929D01*
X6378928Y-2290357D01*
X6378928Y-2276072D01*
X6364643Y-2247500D01*
X6336071Y-2233214D01*
X6293214Y-2233214D01*
X6264643Y-2218929D01*
X6250357Y-2190357D01*
X6250357Y-2176072D01*
X6264643Y-2147500D01*
X6293214Y-2133214D01*
X6336071Y-2133214D01*
X6364643Y-2147500D01*
X6478928Y-2447500D02*
X6493214Y-2433214D01*
X6521786Y-2390357D01*
X6536071Y-2361786D01*
X6550357Y-2318929D01*
X6564643Y-2247500D01*
X6564643Y-2190357D01*
X6550357Y-2118929D01*
X6536071Y-2076071D01*
X6521786Y-2047500D01*
X6493214Y-2004643D01*
X6478928Y-1990357D01*
X7021786Y-2447500D02*
X7007500Y-2433214D01*
X6978928Y-2390357D01*
X6964643Y-2361786D01*
X6950357Y-2318929D01*
X6936071Y-2247500D01*
X6936071Y-2190357D01*
X6950357Y-2118929D01*
X6964643Y-2076071D01*
X6978928Y-2047500D01*
X7007500Y-2004643D01*
X7021786Y-1990357D01*
X7136071Y-2133214D02*
X7136071Y-2333214D01*
X7136071Y-2161786D02*
X7150357Y-2147500D01*
X7178928Y-2133214D01*
X7221786Y-2133214D01*
X7250357Y-2147500D01*
X7264643Y-2176072D01*
X7264643Y-2333214D01*
X7450357Y-2333214D02*
X7421786Y-2318929D01*
X7407500Y-2304643D01*
X7393214Y-2276072D01*
X7393214Y-2190357D01*
X7407500Y-2161786D01*
X7421786Y-2147500D01*
X7450357Y-2133214D01*
X7493214Y-2133214D01*
X7521786Y-2147500D01*
X7536071Y-2161786D01*
X7550357Y-2190357D01*
X7550357Y-2276072D01*
X7536071Y-2304643D01*
X7521786Y-2318929D01*
X7493214Y-2333214D01*
X7450357Y-2333214D01*
X7636071Y-2133214D02*
X7750357Y-2133214D01*
X7678928Y-2033214D02*
X7678928Y-2290357D01*
X7693214Y-2318929D01*
X7721786Y-2333214D01*
X7750357Y-2333214D01*
X8078928Y-2133214D02*
X8078928Y-2433214D01*
X8078928Y-2147500D02*
X8107500Y-2133214D01*
X8164643Y-2133214D01*
X8193214Y-2147500D01*
X8207500Y-2161786D01*
X8221786Y-2190357D01*
X8221786Y-2276072D01*
X8207500Y-2304643D01*
X8193214Y-2318929D01*
X8164643Y-2333214D01*
X8107500Y-2333214D01*
X8078928Y-2318929D01*
X8393214Y-2333214D02*
X8364643Y-2318929D01*
X8350357Y-2290357D01*
X8350357Y-2033214D01*
X8636071Y-2333214D02*
X8636071Y-2176072D01*
X8621786Y-2147500D01*
X8593214Y-2133214D01*
X8536071Y-2133214D01*
X8507500Y-2147500D01*
X8636071Y-2318929D02*
X8607500Y-2333214D01*
X8536071Y-2333214D01*
X8507500Y-2318929D01*
X8493214Y-2290357D01*
X8493214Y-2261786D01*
X8507500Y-2233214D01*
X8536071Y-2218929D01*
X8607500Y-2218929D01*
X8636071Y-2204643D01*
X8736071Y-2133214D02*
X8850357Y-2133214D01*
X8778928Y-2033214D02*
X8778928Y-2290357D01*
X8793214Y-2318929D01*
X8821786Y-2333214D01*
X8850357Y-2333214D01*
X9064643Y-2318929D02*
X9036071Y-2333214D01*
X8978928Y-2333214D01*
X8950357Y-2318929D01*
X8936071Y-2290357D01*
X8936071Y-2176072D01*
X8950357Y-2147500D01*
X8978928Y-2133214D01*
X9036071Y-2133214D01*
X9064643Y-2147500D01*
X9078928Y-2176072D01*
X9078928Y-2204643D01*
X8936071Y-2233214D01*
X9336071Y-2333214D02*
X9336071Y-2033214D01*
X9336071Y-2318929D02*
X9307500Y-2333214D01*
X9250357Y-2333214D01*
X9221786Y-2318929D01*
X9207500Y-2304643D01*
X9193214Y-2276072D01*
X9193214Y-2190357D01*
X9207500Y-2161786D01*
X9221786Y-2147500D01*
X9250357Y-2133214D01*
X9307500Y-2133214D01*
X9336071Y-2147500D01*
X9450357Y-2447500D02*
X9464643Y-2433214D01*
X9493214Y-2390357D01*
X9507500Y-2361786D01*
X9521786Y-2318929D01*
X9536071Y-2247500D01*
X9536071Y-2190357D01*
X9521786Y-2118929D01*
X9507500Y-2076071D01*
X9493214Y-2047500D01*
X9464643Y-2004643D01*
X9450357Y-1990357D01*
M02*
